<svg xmlns="http://www.w3.org/2000/svg" direction="ltr" width="16" height="16" viewBox="13829.784943107546 -1141.9499609170864 210.75221700788643 194.28629578150435" stroke-linecap="round" stroke-linejoin="round" data-color-mode="light" class="tl-container tl-theme__force-sRGB tl-theme__light" style="background-color: rgb(249, 250, 251);"><defs/><g transform="matrix(1, 0, 0, 1, 13975.7989, -1104.2705)" opacity="1"><g transform="scale(1)"><path d="M-3.0111,-3.6332 T-2.0029,-4.4496 1.0944,-6.6777 4.9912,-8.9542 9.0698,-10.1851 13.4446,-10.6094 17.9794,-10.2124 22.3558,-8.7353 26.0956,-6.4775 29.4518,-3.8721 32.2442,-0.9754 34.4902,2.3029 36.0356,6.2535 36.6025,10.5149 36.6555,14.5808 36.1358,18.4181 34.3303,22.1237 35.2346,26.0853 37.4089,28.1745 A5.3435,5.3435 0 0 1 28.0677,33.366 T26.8764,31.5923 24.7001,28.2082 23.1077,24.8386 23.0377,20.7556 24.8735,17.0583 26.1876,13.6394 25.9994,9.5208 24.6428,5.9779 21.7626,3.0762 18.1373,0.4823 14.3337,-0.7063 10.4624,-0.4488 6.7431,0.8954 4.0002,2.7943 3.0111,3.6332 A4.7187,4.7187 0 0 1 -3.0111,-3.6332 ZM36.4108,34.6516 T36.375,34.6861 36.3392,34.7205 A5.3443,5.3443 0 0 1 28.993,26.9565 T29.0294,26.9226 29.0658,26.8888 A5.3435,5.3435 0 0 1 36.4108,34.6516 ZM31.7167,36.0978 T30.0168,35.7878 26.1303,35.2709 20.842,34.4221 17.7403,33.7802 A5.3047,5.3047 0 0 1 20.4397,23.5198 T21.6218,23.8296 25.0002,24.4571 29.1093,24.9461 32.3189,25.3483 33.6155,25.5792 A5.3443,5.3443 0 0 1 31.7167,36.0978 Z" stroke-linecap="round" fill="#1d1d1d"/></g></g><g transform="matrix(1, 0, 0, 1, 13973.4282, -1106.1)" opacity="1"><g transform="scale(1)"><path d="M3.1175,3.5829 T2.1793,4.3832 -0.2673,6.6184 -2.7395,9.8183 -4.3649,13.3354 -5.84,16.9593 -7.5007,20.5431 -9.5102,23.8303 -12.0885,26.8525 -15.0872,29.8175 -18.6743,32.8166 -22.8588,35.5127 -26.9238,37.6256 -30.7957,39.3883 -34.9094,41.1579 -39.1727,42.7423 -43.4229,44.2328 -47.7322,45.9557 -52.2441,47.8929 -56.43,49.769 -60.1431,51.5683 -64.4141,53.6901 -69.0126,56.1489 -73.1019,58.7269 -77.0055,61.2648 -80.6922,63.8696 -83.5294,66.8393 -85.7427,70.0561 -87.9412,73.5454 -90.0634,77.1771 -92.2829,80.2624 -93.5015,81.5986 A5.1485,5.1485 0 0 1 -101.0185,74.5614 T-99.5218,72.6028 -96.9519,68.9172 -94.5791,65.1828 -92.1177,61.6413 -89.4202,58.4808 -86.0638,55.5196 -82.3827,53.0401 -78.438,50.5059 -74.7476,48.1353 -71.3782,46.1875 -67.308,44.1244 -63.003,42.0611 -59.1452,40.2516 -55.4999,38.6241 -51.6003,36.8831 -46.999,34.8554 -42.1098,32.8936 -37.427,31.043 -33.0618,29.1211 -29.2765,27.2539 -25.7176,25.086 -22.3482,22.4013 -19.5131,19.6542 -17.1707,16.7256 -15.2493,13.1919 -13.5974,9.4908 -11.6758,5.6993 -9.267,2.233 -6.4961,-0.5796 -4.0398,-2.7644 -3.1175,-3.5829 A4.7493,4.7493 0 0 1 3.1175,3.5829 Z" stroke-linecap="round" fill="#1d1d1d"/></g></g><g transform="matrix(1, 0, 0, 1, 13895.9805, -1030.1322)" opacity="1"><g transform="scale(1)"><path d="M2.001,3.9585 T0.319,4.7537 -3.967,6.9348 -8.9176,9.5151 -13.5254,11.519 -17.7203,12.9014 -21.435,14.5021 -25.029,16.4201 -28.1674,18.7944 -30.7853,18.1106 -30.1673,16.0452 -26.2412,16.1358 -21.8417,15.8022 -16.7071,14.7245 -11.5094,13.5086 -7.0989,12.7283 -3.1376,11.7579 1.3938,10.2738 5.926,8.7405 10.2521,7.3188 14.3605,5.9234 18.5621,4.3482 22.7692,2.7897 26.3493,1.5688 30.4638,0.4288 35.0836,-0.7246 39.3263,-1.7541 43.4912,-2.5411 47.842,-2.9568 51.9881,-3.3211 56.1157,-4.1141 60.0971,-5.5169 63.654,-7.5159 67.2278,-10.3773 70.6467,-13.375 73.6832,-15.8657 76.5853,-18.5187 79.2978,-21.4674 81.8537,-24.5266 84.0125,-28.2037 84.9308,-30.3668 A5.2257,5.2257 0 0 1 94.8092,-26.9532 T93.8373,-24.578 91.4549,-20.0827 88.7443,-16.467 86.1263,-13.5087 83.1551,-10.488 79.7633,-7.4809 76.3967,-4.8071 73.3207,-2.1592 70.2631,0.3735 66.8826,2.4915 63.0499,4.3055 58.5304,5.7301 53.6358,6.7281 49.3033,7.1338 45.3717,7.4027 41.5068,8.0611 37.6202,9.0008 33.1646,10.1467 28.8158,11.3786 25.0674,12.6494 21.4213,13.9952 17.5119,15.4384 13.2261,16.859 9.0468,18.1951 4.6016,19.7196 -0.5002,21.4069 -5.1064,22.5631 -9.4174,23.3345 -14.209,24.5267 -18.9577,25.7806 -23.5863,26.3398 -27.9335,26.36 -32.1752,26.0487 -36.0595,24.775 -38.4034,21.1954 -38.4361,16.7189 -36.1418,13.0453 -33.0074,10.0047 -29.4763,7.9102 -25.5829,6.1751 -21.626,4.681 -17.298,3.4736 -12.8237,1.7786 -7.9387,-0.7519 -3.6387,-3.0756 -2.001,-3.9585 A4.4355,4.4355 0 0 1 2.001,3.9585 Z" stroke-linecap="round" fill="#1d1d1d"/></g></g><g transform="matrix(1, 0, 0, 1, 13897.2832, -1012.7567)" opacity="1"><g transform="scale(1)"><path d="M0,-4.6431 T1.7431,-4.6606 5.6816,-4.726 10.1781,-4.8115 14.4578,-4.868 18.5378,-4.9005 22.54,-4.9286 26.5691,-4.7499 30.564,-4.1245 34.7973,-3.5458 39.1982,-3.3861 43.3882,-3.3851 47.7631,-3.408 51.8449,-3.7456 55.9997,-4.7713 60.3366,-6.1745 64.5458,-7.7645 68.4725,-9.6034 72.2596,-11.6729 75.9076,-13.8624 79.1364,-16.4146 82.1696,-19.1447 84.909,-21.8115 87.2624,-24.9239 89.3151,-28.8228 91.0662,-32.9076 92.343,-36.5907 93.092,-40.2939 93.5418,-44.2905 94.0903,-48.4452 94.8433,-53.5789 95.2856,-56.6525 A5.2179,5.2179 0 0 1 105.5744,-54.9075 T105.37,-53.7161 104.956,-50.6325 104.3838,-46.5123 103.812,-41.9239 103.2636,-37.7065 102.3626,-34.0022 101.0688,-30.2586 99.5051,-26.3615 97.7121,-22.425 95.6785,-18.83 93.1704,-15.5382 90.1776,-12.5555 87.2069,-9.872 83.681,-6.8823 79.9841,-4.1516 76.2936,-2.0817 72.5176,-0.2054 69.059,1.4126 65.2694,2.9253 61.1738,4.3196 56.9954,5.5201 53.0011,6.4028 48.8718,6.693 44.5042,6.6663 40.4724,6.6328 36.1082,6.5551 31.3199,6.1371 26.726,5.3613 22.5393,4.9286 18.5378,4.9005 14.4578,4.868 10.1781,4.8115 5.6816,4.726 1.7431,4.6606 0,4.6431 A4.6431,4.6431 0 0 1 0,-4.6431 Z" stroke-linecap="round" fill="#1d1d1d"/></g></g><g transform="matrix(1, 0, 0, 1, 13984.6207, -1093.7819)" opacity="1"><g transform="scale(1)"><path d="M 0 0 m -4.099193590550339, 0 a 4.099193590550339,4.099193590550339 0 1,1 8.198387181100678,0 a 4.099193590550339,4.099193590550339 0 1,1 -8.198387181100678,0" stroke-linecap="round" fill="#1d1d1d"/></g></g><g transform="matrix(1, 0, 0, 1, 13959.6637, -1013.0345)" opacity="1"><g transform="scale(1)"><path d="M4.6183,0 T4.549,1.9152 4.4864,6.4614 4.8554,11.0296 6.3306,15.2799 7.2317,19.7061 6.086,23.6453 4.0224,27.2421 1.9912,30.27 1.0897,31.5269 A4.9967,4.9967 0 0 1 -7.0097,25.6731 T-5.364,23.4479 -3.2486,19.4067 -3.3591,15.5965 -4.1842,11.4129 -4.4545,6.5269 -4.549,1.9152 -4.6183,0 A4.6183,4.6183 0 0 1 4.6183,0 Z" stroke-linecap="round" fill="#1d1d1d"/></g></g><g transform="matrix(1, 0, 0, 1, 13962.8678, -993.8917)" opacity="1"><g transform="scale(1)"><path d="M0.804,-4.2412 T2.1169,-3.9989 5.7235,-3.0063 9.145,-1.784 10.2728,-1.312 A4.4254,4.4254 0 0 1 6.8072,6.832 T4.3107,5.7914 0.5051,4.4959 -0.804,4.2412 A4.3167,4.3167 0 0 1 0.804,-4.2412 Z" stroke-linecap="round" fill="#1d1d1d"/></g></g><g transform="matrix(1, 0, 0, 1, 13924.3714, -994.4568)" opacity="1"><g transform="scale(1)"><path d="M2.0505,4.1619 T0.6343,4.8243 -2.969,6.6123 -7.1557,8.9522 -10.9364,11.4762 -14.68,13.2795 -18.5877,13.4514 -22.9934,12.5803 -25.4538,12.031 A4.9915,4.9915 0 0 1 -23.1862,2.309 T-21.7361,2.7233 -18.3815,3.4233 -14.7057,2.6849 -11.1645,0.6612 -7.1108,-1.5308 -3.4387,-3.4427 -2.0505,-4.1619 A4.6396,4.6396 0 0 1 2.0505,4.1619 Z" stroke-linecap="round" fill="#1d1d1d"/></g></g><g transform="matrix(1, 0, 0, 1, 13907.7622, -985.6637)" opacity="1"><g transform="scale(1)"><path d="M4.4044,0 T4.443,1.5531 4.9603,4.8418 5.4388,6.5774 A4.6404,4.6404 0 0 1 -3.4388,9.2826 T-3.9603,6.1945 -4.443,1.5531 -4.4044,0 A4.4044,4.4044 0 0 1 4.4044,0 Z" stroke-linecap="round" fill="#1d1d1d"/></g></g></svg>