<?xml version="1.0" standalone="no"?>
<!DOCTYPE svg PUBLIC "-//W3C//DTD SVG 1.1//EN" "http://www.w3.org/Graphics/SVG/1.1/DTD/svg11.dtd">
<svg version="1.1" xmlns="http://www.w3.org/2000/svg" viewBox="0 0 917.2255305150659 934.6132934383986" width="917.2255305150659" height="934.6132934383986"><!-- svg-source:excalidraw --><metadata></metadata><defs><style class="style-fonts">
      </style></defs><g transform="translate(205.07411953212772 418.9665542594603) rotate(0 142.171875 72.009765625)" stroke="none"><path fill="#4f3866" d="M -2.64,-3.90 Q -2.64,-3.90 1.75,-6.82 6.14,-9.74 9.28,-11.68 12.41,-13.63 14.39,-15.79 16.37,-17.95 17.01,-18.21 17.64,-18.47 18.32,-18.57 19.00,-18.68 19.69,-18.61 20.37,-18.55 21.02,-18.33 21.67,-18.10 22.25,-17.73 22.83,-17.35 23.30,-16.85 23.77,-16.35 24.11,-15.75 24.45,-15.15 24.63,-14.49 24.81,-13.82 24.83,-13.14 24.85,-12.45 24.71,-11.78 24.56,-11.10 24.26,-10.49 23.96,-9.87 23.52,-9.34 23.08,-8.81 22.52,-8.40 21.97,-8.00 18.37,-8.37 14.76,-8.75 12.64,-8.51 10.51,-8.27 7.35,-6.87 4.19,-5.47 -0.17,-2.94 -4.54,-0.41 -8.70,2.57 -12.86,5.57 -15.48,8.87 -18.10,12.18 -16.50,15.47 -14.91,18.76 -10.74,21.79 -6.58,24.81 -1.06,28.52 4.45,32.22 10.73,37.64 17.01,43.06 20.71,48.27 24.41,53.48 25.74,59.47 27.07,65.45 24.36,71.91 21.65,78.37 12.80,85.77 3.95,93.18 -5.38,98.51 -14.73,103.84 -23.49,107.16 -32.25,110.48 -38.63,111.92 -45.02,113.37 -51.28,111.64 -57.54,109.90 -57.69,106.59 -57.84,103.27 -54.92,99.76 -52.00,96.25 -46.88,93.63 -41.76,91.01 -35.33,88.60 -28.91,86.19 -18.83,81.90 -8.74,77.60 0.60,71.90 9.96,66.21 19.42,58.10 28.89,49.99 38.34,40.33 47.79,30.66 55.75,20.65 63.72,10.64 70.28,-1.41 76.83,-13.47 80.68,-21.63 84.52,-29.80 86.28,-34.14 88.04,-38.49 88.26,-38.98 88.48,-39.47 88.83,-40.09 89.18,-40.71 89.66,-41.23 90.15,-41.74 90.75,-42.13 91.34,-42.52 92.02,-42.75 92.69,-42.98 93.39,-43.05 94.10,-43.11 94.80,-43.01 95.51,-42.90 96.16,-42.63 96.82,-42.36 97.39,-41.94 97.97,-41.52 98.42,-40.97 98.88,-40.43 99.19,-39.79 99.50,-39.15 99.65,-38.45 99.80,-37.76 99.78,-37.05 99.76,-36.34 99.57,-35.65 99.38,-34.97 97.98,-31.19 96.58,-27.42 95.62,-23.00 94.67,-18.59 93.80,-13.03 92.93,-7.48 91.52,-0.65 90.12,6.17 87.01,16.91 83.89,27.65 81.09,36.99 78.28,46.34 76.34,53.71 74.40,61.07 73.49,66.10 72.58,71.13 72.21,75.14 71.83,79.15 71.67,81.96 71.51,84.77 71.40,87.58 71.30,90.39 68.59,88.05 65.89,85.70 68.85,82.69 71.80,79.68 74.14,78.30 76.49,76.92 79.00,73.64 81.52,70.36 84.68,65.23 87.84,60.09 92.79,53.22 97.73,46.35 103.73,39.40 109.72,32.44 115.40,27.11 121.08,21.79 126.95,18.33 132.82,14.88 136.91,16.46 141.01,18.05 142.94,23.36 144.87,28.67 144.75,35.80 144.63,42.93 143.47,50.82 142.32,58.72 141.30,65.76 140.28,72.80 140.12,79.42 139.95,86.03 140.60,90.02 141.26,94.01 141.97,96.03 142.69,98.04 144.01,95.20 145.33,92.36 150.51,88.07 155.68,83.78 161.07,78.35 166.47,72.92 171.08,67.06 175.70,61.20 178.85,56.04 182.01,50.88 183.88,46.80 185.75,42.73 186.67,40.76 187.59,38.79 187.96,38.01 188.34,37.23 188.74,36.60 189.14,35.97 189.68,35.45 190.21,34.93 190.86,34.56 191.51,34.19 192.22,33.98 192.94,33.77 193.68,33.75 194.43,33.72 195.16,33.87 195.89,34.02 196.56,34.34 197.24,34.66 197.81,35.13 198.39,35.60 198.84,36.20 199.29,36.79 199.58,37.48 199.87,38.16 199.99,38.90 200.11,39.64 200.05,40.38 199.99,41.12 199.75,41.83 199.51,42.54 199.87,46.02 200.22,49.50 199.59,55.99 198.95,62.47 198.57,68.13 198.20,73.79 198.04,78.95 197.88,84.12 197.87,88.48 197.87,92.83 198.31,95.31 198.76,97.79 203.30,96.47 207.85,95.15 212.32,92.36 216.78,89.56 223.06,85.58 229.34,81.60 235.26,77.28 241.18,72.95 248.07,67.94 254.96,62.93 260.97,58.86 266.99,54.79 270.39,52.58 273.79,50.38 274.86,50.08 275.93,49.78 276.62,49.43 277.31,49.09 278.07,48.91 278.82,48.74 279.59,48.76 280.37,48.77 281.11,48.97 281.86,49.17 282.54,49.54 283.21,49.91 283.78,50.43 284.35,50.95 284.78,51.60 285.21,52.24 285.47,52.97 285.73,53.70 285.81,54.46 285.89,55.23 285.78,56.00 285.68,56.76 285.39,57.48 285.10,58.20 284.65,58.83 284.20,59.45 283.61,59.96 283.03,60.46 283.59,63.24 284.15,66.03 281.28,74.54 278.40,83.04 274.34,93.06 270.27,103.08 265.17,114.40 260.07,125.72 254.02,139.10 247.98,152.49 243.72,161.61 239.45,170.73 236.86,176.11 234.26,181.49 233.10,183.88 231.95,186.27 231.51,186.95 231.07,187.64 230.48,188.19 229.89,188.75 229.19,189.15 228.48,189.55 227.70,189.77 226.92,189.99 226.11,190.02 225.30,190.04 224.51,189.87 223.72,189.71 222.99,189.35 222.26,189.00 221.63,188.48 221.01,187.97 220.53,187.31 220.04,186.66 219.73,185.91 219.42,185.17 219.30,184.36 219.17,183.56 219.24,182.76 219.31,181.95 219.58,181.18 219.84,180.41 220.15,173.05 220.46,165.69 222.75,156.76 225.04,147.84 228.42,137.35 231.81,126.86 237.61,112.28 243.42,97.70 249.88,85.14 256.34,72.58 264.47,61.72 272.60,50.86 282.37,42.26 292.14,33.65 301.80,27.99 311.47,22.32 319.24,19.54 327.01,16.76 333.37,19.09 339.73,21.42 342.17,27.74 344.61,34.07 343.66,42.78 342.71,51.50 339.21,62.55 335.71,73.59 331.77,82.04 327.84,90.49 322.45,97.02 317.05,103.56 309.55,107.46 302.05,111.36 293.17,112.59 284.28,113.82 273.41,111.52 262.55,109.22 255.42,106.33 248.29,103.45 244.41,100.23 240.53,97.00 239.13,94.66 237.73,92.33 237.74,90.39 237.75,88.44 237.54,88.08 237.33,87.71 237.25,87.29 237.17,86.87 237.22,86.45 237.28,86.03 237.47,85.65 237.65,85.27 237.95,84.97 238.25,84.66 238.63,84.47 239.01,84.28 239.43,84.22 239.85,84.17 240.27,84.24 240.69,84.32 241.06,84.53 241.43,84.74 241.72,85.05 242.00,85.37 242.17,85.76 242.34,86.15 242.37,86.57 242.41,87.00 242.31,87.41 242.21,87.82 241.98,88.18 241.75,88.54 241.42,88.81 241.09,89.07 240.69,89.22 240.30,89.37 239.87,89.38 239.45,89.40 239.04,89.27 238.63,89.15 238.29,88.90 237.94,88.66 237.69,88.31 237.44,87.97 237.32,87.56 237.19,87.16 237.20,86.73 237.21,86.31 237.36,85.91 237.50,85.51 237.77,85.17 238.03,84.84 238.39,84.61 238.75,84.38 239.16,84.28 239.57,84.17 239.99,84.21 240.42,84.24 240.81,84.41 241.20,84.57 241.52,84.86 241.83,85.14 241.83,85.14 241.83,85.14 244.89,86.35 247.95,87.57 250.65,89.45 253.34,91.34 259.44,93.81 265.54,96.29 274.24,98.48 282.94,100.66 289.69,99.97 296.44,99.28 301.78,96.94 307.13,94.60 311.40,89.63 315.68,84.65 319.27,77.05 322.87,69.44 326.12,59.54 329.37,49.63 330.50,43.26 331.62,36.88 330.56,32.91 329.49,28.95 323.73,31.28 317.96,33.61 309.30,38.54 300.63,43.47 291.78,51.09 282.92,58.71 275.39,68.63 267.87,78.55 261.70,90.53 255.54,102.51 249.95,116.67 244.35,130.83 241.19,141.00 238.03,151.16 235.91,159.50 233.79,167.85 232.56,173.25 231.34,178.65 231.64,182.46 231.95,186.27 231.51,186.95 231.07,187.63 230.48,188.19 229.89,188.75 229.19,189.15 228.48,189.55 227.70,189.77 226.92,189.99 226.11,190.02 225.30,190.04 224.51,189.87 223.72,189.71 222.99,189.35 222.26,189.00 221.63,188.48 221.01,187.97 220.53,187.31 220.04,186.66 219.73,185.91 219.42,185.17 219.30,184.37 219.17,183.56 219.24,182.76 219.31,181.95 219.58,181.18 219.84,180.42 221.00,178.02 222.15,175.63 224.72,170.34 227.29,165.04 231.51,156.00 235.74,146.96 241.78,133.57 247.82,120.18 252.84,109.09 257.87,98.00 261.86,88.33 265.86,78.67 268.72,70.74 271.57,62.81 272.35,60.38 273.12,57.96 274.53,53.87 275.93,49.78 276.62,49.43 277.31,49.09 278.07,48.91 278.82,48.74 279.59,48.76 280.36,48.77 281.11,48.97 281.86,49.17 282.54,49.54 283.21,49.91 283.78,50.43 284.35,50.95 284.78,51.60 285.21,52.24 285.47,52.97 285.73,53.69 285.81,54.46 285.89,55.23 285.78,56.00 285.68,56.76 285.39,57.48 285.10,58.20 284.65,58.82 284.20,59.45 283.62,59.95 283.03,60.46 281.47,60.50 279.91,60.55 276.84,62.64 273.78,64.74 267.95,68.75 262.12,72.76 255.22,77.79 248.33,82.81 242.09,87.31 235.85,91.81 229.58,95.82 223.31,99.84 218.23,103.10 213.16,106.37 207.63,108.56 202.09,110.75 197.44,109.65 192.80,108.54 189.64,104.97 186.48,101.39 185.62,97.11 184.76,92.84 184.78,88.26 184.81,83.69 185.00,78.27 185.19,72.86 185.64,66.97 186.09,61.08 186.83,54.88 187.57,48.69 187.84,46.04 188.11,43.39 188.22,40.31 188.34,37.23 188.74,36.60 189.14,35.97 189.68,35.45 190.21,34.93 190.86,34.56 191.51,34.19 192.22,33.98 192.94,33.78 193.68,33.75 194.43,33.72 195.16,33.87 195.89,34.01 196.56,34.33 197.24,34.66 197.81,35.13 198.39,35.60 198.84,36.20 199.29,36.79 199.58,37.48 199.87,38.16 199.99,38.90 200.11,39.64 200.05,40.38 199.99,41.12 199.75,41.83 199.51,42.54 198.95,43.23 198.38,43.93 197.37,46.02 196.36,48.12 193.97,52.44 191.57,56.77 188.08,62.39 184.58,68.01 179.74,74.46 174.90,80.91 169.31,87.06 163.72,93.20 157.69,98.46 151.66,103.72 145.92,106.16 140.17,108.61 135.34,105.80 130.50,102.99 129.31,99.51 128.12,96.04 127.39,90.86 126.66,85.69 126.90,78.28 127.14,70.88 128.20,63.77 129.26,56.67 130.46,49.55 131.66,42.43 132.02,36.85 132.37,31.27 132.68,28.31 132.99,25.34 131.12,27.94 129.25,30.54 124.03,35.38 118.81,40.23 113.25,46.78 107.68,53.32 103.18,59.96 98.67,66.59 95.65,71.77 92.62,76.96 90.17,80.73 87.72,84.51 85.31,86.05 82.90,87.59 80.98,88.77 79.07,89.95 76.51,91.81 73.95,93.67 69.23,95.20 64.51,96.73 61.59,93.41 58.68,90.09 58.78,87.06 58.88,84.02 59.07,80.99 59.25,77.95 59.70,73.41 60.14,68.87 61.15,63.36 62.16,57.84 64.17,50.26 66.18,42.68 69.02,33.38 71.86,24.07 74.98,13.85 78.10,3.62 79.53,-2.91 80.96,-9.45 81.98,-15.36 82.99,-21.26 84.23,-26.42 85.47,-31.57 86.98,-35.52 88.48,-39.47 88.83,-40.09 89.18,-40.71 89.66,-41.23 90.15,-41.74 90.75,-42.13 91.34,-42.52 92.01,-42.75 92.69,-42.98 93.39,-43.05 94.10,-43.11 94.80,-43.01 95.51,-42.90 96.16,-42.63 96.82,-42.36 97.39,-41.94 97.96,-41.52 98.42,-40.97 98.88,-40.43 99.19,-39.79 99.50,-39.15 99.65,-38.45 99.80,-37.76 99.78,-37.05 99.76,-36.34 99.57,-35.65 99.38,-34.97 99.10,-34.50 98.83,-34.03 96.91,-29.45 94.98,-24.88 91.00,-16.39 87.01,-7.91 79.93,4.98 72.85,17.89 64.50,28.34 56.15,38.80 46.36,48.87 36.57,58.94 26.40,67.69 16.22,76.45 6.12,82.59 -3.98,88.73 -14.33,93.15 -24.69,97.57 -30.59,99.73 -36.49,101.89 -41.81,104.19 -47.14,106.49 -47.33,104.14 -47.53,101.79 -41.90,100.63 -36.28,99.46 -28.31,96.64 -20.34,93.81 -11.74,89.04 -3.13,84.26 4.33,78.62 11.80,72.97 13.98,69.59 16.16,66.22 15.49,62.98 14.81,59.74 12.10,55.73 9.39,51.71 3.69,46.74 -2.01,41.76 -7.79,37.83 -13.57,33.89 -18.82,29.66 -24.07,25.42 -26.71,20.56 -29.35,15.70 -28.17,10.59 -27.00,5.48 -23.24,1.02 -19.48,-3.42 -14.82,-6.80 -10.16,-10.19 -5.05,-13.10 0.04,-16.01 5.10,-17.83 10.16,-19.65 13.26,-18.80 16.37,-17.95 17.01,-18.21 17.64,-18.47 18.32,-18.57 19.00,-18.68 19.69,-18.61 20.37,-18.55 21.02,-18.33 21.67,-18.10 22.25,-17.73 22.83,-17.35 23.30,-16.85 23.77,-16.35 24.11,-15.75 24.45,-15.15 24.63,-14.49 24.81,-13.83 24.83,-13.14 24.85,-12.45 24.71,-11.78 24.56,-11.10 24.26,-10.49 23.96,-9.87 23.52,-9.34 23.08,-8.81 22.52,-8.40 21.97,-8.00 19.62,-6.72 17.27,-5.43 14.30,-3.76 11.32,-2.08 6.98,0.90 2.64,3.90 2.13,4.16 1.63,4.42 1.07,4.55 0.52,4.68 -0.04,4.67 -0.61,4.67 -1.16,4.53 -1.71,4.39 -2.21,4.12 -2.71,3.85 -3.13,3.47 -3.55,3.09 -3.87,2.62 -4.19,2.15 -4.38,1.61 -4.58,1.08 -4.64,0.52 -4.71,-0.04 -4.63,-0.60 -4.56,-1.16 -4.35,-1.69 -4.15,-2.22 -3.82,-2.69 -3.49,-3.15 -3.06,-3.53 -2.64,-3.90 -2.64,-3.90 L -2.64,-3.90 Z"></path></g></svg>
