<?xml version="1.0" standalone="no"?>
<!DOCTYPE svg PUBLIC "-//W3C//DTD SVG 1.1//EN" "http://www.w3.org/Graphics/SVG/1.1/DTD/svg11.dtd">
<svg version="1.1" xmlns="http://www.w3.org/2000/svg" viewBox="0 0 917.2255305150659 934.6132934383986" width="917.2255305150659" height="934.6132934383986"><!-- svg-source:excalidraw --><metadata></metadata><defs><style class="style-fonts">
      </style></defs><g transform="translate(124.31818059326906 397.36298002073454) rotate(0 205.138671875 78.4375)" stroke="none"><path fill="#4f3866" d="M 3.13,0.72 Q 3.13,0.72 2.70,8.48 2.27,16.24 -0.40,26.54 -3.08,36.84 -6.37,49.25 -9.66,61.66 -12.72,74.26 -15.77,86.86 -18.09,97.47 -20.40,108.08 -21.65,116.08 -22.91,124.08 -23.26,130.68 -23.61,137.28 -22.85,141.21 -22.09,145.14 -20.81,148.06 -19.53,150.98 -17.50,153.62 -15.47,156.26 -11.37,157.59 -7.27,158.91 -4.41,158.17 -1.55,157.43 2.31,156.22 6.17,155.01 9.96,153.72 13.74,152.42 18.23,149.90 22.72,147.38 27.44,143.91 32.17,140.43 36.96,136.13 41.76,131.82 46.39,125.84 51.01,119.85 53.17,114.49 55.32,109.12 56.03,104.44 56.74,99.76 55.43,96.48 54.13,93.20 51.51,90.96 48.89,88.71 45.31,87.53 41.72,86.35 36.28,86.08 30.83,85.82 26.72,86.73 22.61,87.65 19.90,88.88 17.19,90.12 15.83,91.86 14.46,93.59 13.55,91.60 12.65,89.62 17.23,88.68 21.81,87.74 25.68,86.27 29.54,84.80 34.25,82.56 38.97,80.32 46.68,75.96 54.39,71.61 61.82,67.66 69.24,63.71 75.42,60.75 81.59,57.80 85.86,56.02 90.13,54.25 92.74,53.39 95.35,52.53 97.67,52.43 100.00,52.33 102.01,53.32 104.03,54.32 105.44,57.61 106.86,60.91 105.64,69.09 104.43,77.27 102.36,83.91 100.29,90.55 98.25,97.20 96.21,103.85 94.87,109.84 93.53,115.84 92.94,121.93 92.34,128.02 92.07,132.19 91.80,136.36 91.97,138.77 92.13,141.18 95.00,139.50 97.87,137.82 102.51,134.57 107.14,131.32 112.34,127.29 117.55,123.26 122.09,119.29 126.63,115.32 131.31,109.52 135.98,103.72 139.63,97.91 143.29,92.10 146.00,86.90 148.72,81.71 150.64,77.80 152.56,73.89 153.71,71.50 154.87,69.12 155.40,68.05 155.93,66.98 156.30,66.42 156.68,65.86 157.17,65.41 157.67,64.95 158.26,64.63 158.85,64.31 159.50,64.14 160.15,63.97 160.82,63.96 161.49,63.95 162.15,64.10 162.80,64.26 163.40,64.56 164.00,64.86 164.51,65.30 165.02,65.74 165.41,66.29 165.80,66.83 166.04,67.46 166.29,68.08 166.38,68.75 166.47,69.41 166.40,70.08 166.33,70.75 166.10,71.38 165.87,72.01 165.85,74.18 165.83,76.34 164.29,82.46 162.75,88.58 161.46,94.64 160.17,100.70 159.35,105.75 158.53,110.79 158.18,114.33 157.82,117.87 158.46,120.04 159.10,122.20 161.24,122.09 163.39,121.98 166.19,120.34 169.00,118.69 175.98,113.21 182.95,107.72 189.90,100.94 196.84,94.16 202.71,87.61 208.58,81.06 212.55,76.31 216.53,71.57 218.62,68.87 220.72,66.17 220.86,65.54 221.01,64.90 221.53,64.42 222.05,63.93 222.66,63.59 223.28,63.24 223.97,63.05 224.65,62.87 225.36,62.85 226.07,62.83 226.76,62.98 227.45,63.13 228.09,63.44 228.72,63.75 229.27,64.21 229.81,64.66 230.23,65.24 230.65,65.81 230.92,66.47 231.19,67.12 231.29,67.82 231.39,68.52 231.33,69.23 231.26,69.93 231.03,70.60 230.79,71.27 230.41,71.87 230.02,72.46 227.43,80.78 224.85,89.10 223.23,94.10 221.61,99.11 219.98,105.49 218.34,111.87 217.70,116.66 217.05,121.45 216.76,125.48 216.47,129.52 216.95,132.07 217.43,134.63 222.12,130.60 226.81,126.57 233.04,118.72 239.27,110.86 244.66,101.09 250.05,91.32 255.14,79.85 260.23,68.37 265.32,56.56 270.41,44.74 275.38,34.31 280.35,23.88 284.62,15.85 288.89,7.83 292.00,2.21 295.11,-3.41 296.42,-5.87 297.73,-8.33 298.15,-8.87 298.56,-9.42 299.10,-9.85 299.63,-10.28 300.25,-10.56 300.87,-10.85 301.54,-10.99 302.21,-11.12 302.89,-11.09 303.58,-11.05 304.23,-10.86 304.89,-10.66 305.48,-10.32 306.07,-9.97 306.56,-9.50 307.05,-9.02 307.41,-8.44 307.77,-7.86 307.98,-7.21 308.19,-6.56 308.25,-5.88 308.30,-5.19 308.18,-4.52 308.07,-3.85 307.79,-3.22 307.52,-2.59 308.02,1.34 308.53,5.28 307.50,11.09 306.46,16.90 304.73,24.13 303.00,31.36 300.43,39.74 297.87,48.11 295.02,57.38 292.18,66.64 288.90,78.95 285.61,91.26 283.51,100.73 281.41,110.19 280.49,117.00 279.57,123.81 280.15,128.05 280.73,132.30 282.40,133.81 284.07,135.32 286.52,136.03 288.96,136.74 292.36,137.19 295.76,137.63 299.75,136.59 303.73,135.55 311.53,131.13 319.33,126.72 327.74,121.89 336.15,117.05 343.54,112.77 350.92,108.49 355.98,105.02 361.03,101.55 363.47,98.38 365.91,95.22 366.77,93.01 367.64,90.80 365.42,91.79 363.20,92.78 359.34,95.40 355.49,98.01 350.91,101.87 346.33,105.73 342.28,109.90 338.22,114.07 335.65,118.59 333.08,123.11 332.04,126.26 331.00,129.41 335.02,128.37 339.05,127.33 343.15,123.27 347.25,119.20 351.68,112.39 356.12,105.57 360.65,95.60 365.18,85.63 371.76,69.83 378.33,54.02 385.04,40.85 391.75,27.68 398.34,18.03 404.93,8.38 409.52,2.79 414.11,-2.78 416.18,-5.32 418.26,-7.86 418.50,-8.33 418.74,-8.80 419.21,-9.25 419.69,-9.69 420.26,-10.02 420.83,-10.34 421.46,-10.52 422.09,-10.69 422.75,-10.71 423.41,-10.73 424.05,-10.59 424.69,-10.46 425.28,-10.17 425.87,-9.88 426.37,-9.46 426.87,-9.04 427.26,-8.52 427.65,-7.99 427.90,-7.38 428.15,-6.78 428.25,-6.13 428.35,-5.48 428.29,-4.83 428.23,-4.17 428.02,-3.55 427.81,-2.93 427.45,-2.38 427.09,-1.83 424.28,1.95 421.46,5.74 418.30,10.24 415.13,14.74 411.90,20.84 408.67,26.94 404.43,36.75 400.19,46.56 397.34,56.00 394.49,65.44 393.00,74.60 391.51,83.75 390.87,92.53 390.23,101.30 390.78,109.36 391.33,117.43 393.98,125.39 396.63,133.34 399.84,137.95 403.06,142.56 406.34,144.74 409.62,146.93 414.86,144.61 420.11,142.30 425.09,136.30 430.06,130.30 434.50,125.68 438.95,121.05 439.25,120.75 439.55,120.45 439.93,120.26 440.31,120.07 440.73,120.01 441.15,119.96 441.57,120.04 441.99,120.11 442.36,120.32 442.73,120.53 443.01,120.85 443.29,121.16 443.46,121.56 443.63,121.95 443.66,122.37 443.70,122.79 443.60,123.20 443.49,123.62 443.27,123.98 443.04,124.33 442.71,124.60 442.37,124.87 441.98,125.01 441.58,125.16 441.15,125.17 440.73,125.18 440.32,125.06 439.92,124.93 439.57,124.69 439.22,124.44 438.98,124.09 438.73,123.75 438.60,123.34 438.48,122.94 438.49,122.51 438.50,122.09 438.65,121.69 438.79,121.29 439.06,120.96 439.33,120.63 439.68,120.40 440.04,120.17 440.45,120.07 440.87,119.96 441.29,120.00 441.71,120.03 442.10,120.20 442.49,120.37 442.81,120.65 443.13,120.93 443.34,121.30 443.55,121.67 443.63,122.09 443.71,122.51 443.65,122.93 443.59,123.35 443.40,123.73 443.21,124.11 443.22,124.11 443.22,124.11 440.26,129.80 437.30,135.50 432.26,143.46 427.22,151.42 420.68,155.70 414.13,159.98 408.31,158.64 402.49,157.30 397.52,153.63 392.55,149.96 388.47,143.69 384.40,137.41 381.43,127.89 378.46,118.36 377.91,109.36 377.37,100.35 378.08,91.00 378.79,81.65 380.48,71.64 382.17,61.63 385.40,51.51 388.63,41.38 393.35,31.25 398.07,21.11 401.84,14.49 405.60,7.88 409.03,3.24 412.47,-1.39 415.60,-5.09 418.73,-8.80 419.21,-9.24 419.69,-9.69 420.26,-10.02 420.83,-10.34 421.46,-10.52 422.09,-10.69 422.75,-10.71 423.41,-10.73 424.05,-10.59 424.69,-10.46 425.28,-10.17 425.87,-9.88 426.37,-9.46 426.87,-9.04 427.26,-8.52 427.65,-7.99 427.90,-7.38 428.15,-6.78 428.25,-6.13 428.35,-5.48 428.29,-4.83 428.23,-4.18 428.02,-3.56 427.81,-2.94 427.45,-2.38 427.10,-1.83 426.41,-1.67 425.73,-1.50 423.66,0.92 421.60,3.36 417.29,8.60 412.99,13.85 406.81,23.02 400.63,32.18 394.20,45.01 387.77,57.84 381.45,73.94 375.13,90.03 370.45,100.90 365.76,111.77 360.62,119.78 355.49,127.78 349.73,133.06 343.98,138.34 337.23,140.62 330.47,142.91 326.26,141.24 322.05,139.57 320.29,136.09 318.52,132.61 318.95,128.99 319.38,125.37 320.94,121.10 322.49,116.82 326.04,111.14 329.59,105.45 334.30,100.98 339.01,96.51 344.35,92.50 349.68,88.49 354.81,85.64 359.93,82.78 365.12,81.67 370.31,80.56 373.23,82.16 376.14,83.76 377.27,86.96 378.41,90.16 377.77,92.67 377.13,95.18 375.46,98.45 373.78,101.73 370.24,105.68 366.70,109.62 361.35,113.31 356.00,117.00 348.75,121.45 341.51,125.90 333.23,131.16 324.96,136.43 315.76,141.86 306.56,147.29 300.40,148.55 294.23,149.81 289.24,148.98 284.25,148.16 279.63,145.89 275.00,143.62 271.86,139.27 268.73,134.92 267.85,128.57 266.98,122.22 267.99,114.83 269.01,107.44 271.17,97.71 273.34,87.98 276.70,75.41 280.07,62.85 283.03,53.59 285.99,44.33 288.62,36.38 291.26,28.43 293.03,21.61 294.80,14.79 295.82,9.28 296.84,3.77 297.97,0.73 299.11,-2.30 298.42,-5.32 297.73,-8.33 298.15,-8.87 298.56,-9.42 299.09,-9.85 299.63,-10.28 300.25,-10.56 300.87,-10.85 301.54,-10.99 302.21,-11.12 302.89,-11.09 303.58,-11.05 304.23,-10.86 304.89,-10.67 305.48,-10.32 306.07,-9.97 306.56,-9.50 307.05,-9.02 307.41,-8.44 307.77,-7.86 307.98,-7.21 308.19,-6.56 308.25,-5.88 308.30,-5.19 308.18,-4.52 308.07,-3.85 307.79,-3.22 307.52,-2.59 305.98,-0.26 304.44,2.05 301.12,7.40 297.80,12.75 293.40,20.40 289.01,28.05 284.03,38.26 279.05,48.47 273.95,60.29 268.85,72.11 263.77,84.05 258.69,95.99 253.11,106.53 247.52,117.07 240.89,126.26 234.26,135.45 228.73,139.80 223.20,144.15 218.22,144.50 213.24,144.85 209.60,141.56 205.95,138.27 205.02,133.50 204.09,128.72 204.42,124.21 204.76,119.69 205.58,114.22 206.40,108.74 208.22,102.00 210.04,95.25 211.75,90.24 213.47,85.23 215.92,78.22 218.38,71.20 219.69,68.05 221.01,64.90 221.53,64.42 222.05,63.93 222.66,63.59 223.28,63.24 223.97,63.05 224.65,62.87 225.36,62.85 226.07,62.83 226.76,62.98 227.45,63.13 228.09,63.44 228.72,63.75 229.27,64.21 229.81,64.66 230.23,65.24 230.65,65.81 230.92,66.46 231.19,67.12 231.29,67.82 231.39,68.52 231.33,69.23 231.26,69.93 231.03,70.60 230.79,71.27 230.41,71.87 230.02,72.46 229.16,72.55 228.30,72.63 226.04,75.12 223.79,77.61 219.79,82.45 215.79,87.29 209.94,94.30 204.09,101.32 196.98,108.76 189.86,116.21 182.06,122.74 174.26,129.27 169.06,131.56 163.86,133.84 159.88,133.61 155.91,133.38 152.89,131.62 149.86,129.86 147.82,126.44 145.77,123.03 145.64,119.84 145.52,116.64 145.91,112.68 146.31,108.72 147.25,103.37 148.20,98.03 149.65,91.82 151.10,85.61 152.63,79.67 154.16,73.73 155.04,70.36 155.93,66.98 156.30,66.42 156.67,65.86 157.17,65.41 157.67,64.95 158.26,64.63 158.85,64.31 159.50,64.14 160.15,63.97 160.82,63.96 161.49,63.95 162.15,64.10 162.80,64.26 163.40,64.56 164.00,64.86 164.51,65.30 165.02,65.74 165.41,66.29 165.80,66.83 166.04,67.46 166.29,68.08 166.38,68.75 166.47,69.41 166.40,70.08 166.33,70.75 166.10,71.38 165.87,72.01 165.28,73.05 164.68,74.09 163.46,76.40 162.25,78.70 160.28,82.62 158.31,86.54 155.53,92.23 152.75,97.93 148.83,104.40 144.92,110.88 139.66,117.45 134.40,124.03 129.66,128.30 124.91,132.57 119.54,136.92 114.16,141.26 108.54,145.25 102.92,149.24 97.36,151.05 91.81,152.85 87.47,150.97 83.13,149.08 81.41,145.65 79.68,142.21 79.49,138.89 79.29,135.56 79.58,131.15 79.88,126.75 80.61,119.91 81.34,113.07 82.83,106.62 84.33,100.17 86.42,93.48 88.52,86.79 90.55,80.60 92.58,74.41 95.67,68.90 98.76,63.40 96.66,64.12 94.55,64.85 90.56,66.53 86.56,68.20 80.61,71.04 74.66,73.89 67.35,77.77 60.04,81.66 51.96,86.18 43.87,90.71 38.73,93.12 33.59,95.53 29.19,97.17 24.79,98.82 20.65,99.81 16.51,100.80 12.68,100.60 8.86,100.40 7.01,99.03 5.16,97.66 4.66,92.60 4.15,87.54 5.56,85.44 6.97,83.34 9.61,81.24 12.25,79.15 16.23,77.47 20.22,75.80 25.92,74.78 31.63,73.76 38.88,74.47 46.13,75.17 51.57,77.71 57.01,80.25 60.98,84.75 64.95,89.25 66.48,95.15 68.01,101.06 66.94,107.27 65.86,113.47 62.98,120.10 60.09,126.72 54.83,133.58 49.58,140.43 44.35,145.18 39.13,149.92 33.79,153.82 28.45,157.72 23.06,160.66 17.67,163.61 13.69,165.02 9.71,166.43 5.18,167.82 0.64,169.22 -4.42,169.95 -9.49,170.69 -13.79,169.58 -18.09,168.47 -21.54,166.03 -24.99,163.59 -27.81,159.63 -30.63,155.67 -32.30,151.47 -33.97,147.27 -34.81,141.99 -35.66,136.71 -35.27,129.45 -34.89,122.20 -33.57,113.85 -32.25,105.50 -29.90,94.75 -27.56,83.99 -24.46,71.27 -21.35,58.54 -18.03,46.14 -14.70,33.74 -11.96,23.66 -9.21,13.57 -6.17,6.42 -3.13,-0.72 -2.99,-1.09 -2.86,-1.45 -2.65,-1.77 -2.43,-2.10 -2.14,-2.36 -1.86,-2.62 -1.52,-2.80 -1.17,-2.99 -0.80,-3.09 -0.42,-3.18 -0.04,-3.19 0.34,-3.19 0.72,-3.10 1.10,-3.02 1.44,-2.84 1.79,-2.67 2.08,-2.41 2.37,-2.16 2.60,-1.84 2.82,-1.53 2.97,-1.17 3.11,-0.80 3.16,-0.42 3.21,-0.04 3.17,0.34 3.13,0.72 3.13,0.72 L 3.13,0.72 Z"></path></g><g transform="translate(359.53693059326906 412.79266752073454) rotate(0 5.203125 12.109375)" stroke="none"><path fill="#4f3866" d="M 3.08,-0.54 Q 3.08,-0.54 4.74,2.96 6.40,6.48 6.71,9.01 7.01,11.53 7.21,15.00 7.41,18.46 6.30,16.55 5.19,14.63 4.07,12.41 2.95,10.19 4.02,7.57 5.08,4.95 5.11,4.52 5.14,4.10 5.31,3.71 5.47,3.31 5.75,3.00 6.04,2.68 6.40,2.46 6.77,2.25 7.19,2.17 7.61,2.08 8.03,2.14 8.45,2.19 8.83,2.38 9.21,2.56 9.52,2.86 9.82,3.16 10.01,3.54 10.20,3.92 10.26,4.34 10.32,4.76 10.25,5.18 10.17,5.60 9.97,5.97 9.76,6.34 9.44,6.62 9.13,6.91 8.74,7.08 8.35,7.25 7.93,7.29 7.51,7.33 7.09,7.23 6.68,7.13 6.32,6.91 5.96,6.68 5.69,6.35 5.42,6.02 5.27,5.62 5.12,5.23 5.11,4.80 5.09,4.38 5.21,3.97 5.34,3.56 5.58,3.21 5.83,2.87 6.17,2.62 6.51,2.37 6.92,2.24 7.32,2.11 7.75,2.12 8.17,2.13 8.57,2.27 8.97,2.41 9.31,2.68 9.64,2.94 9.87,3.30 10.10,3.65 10.21,4.06 10.31,4.48 10.31,4.48 10.31,4.47 11.50,5.57 12.68,6.67 13.86,8.44 15.04,10.22 15.31,12.50 15.57,14.79 15.52,17.29 15.47,19.80 14.58,22.35 13.70,24.89 11.42,26.66 9.14,28.43 5.14,28.24 1.13,28.05 -0.61,25.71 -2.36,23.37 -2.67,21.10 -2.99,18.83 -3.12,15.78 -3.25,12.74 -3.51,10.52 -3.77,8.30 -3.42,4.42 -3.08,0.54 -3.10,0.17 -3.12,-0.20 -3.05,-0.57 -2.98,-0.94 -2.82,-1.28 -2.66,-1.63 -2.43,-1.92 -2.20,-2.22 -1.90,-2.45 -1.60,-2.68 -1.26,-2.83 -0.91,-2.99 -0.54,-3.05 -0.17,-3.12 0.20,-3.09 0.57,-3.07 0.93,-2.96 1.29,-2.84 1.62,-2.64 1.94,-2.45 2.20,-2.18 2.47,-1.91 2.66,-1.59 2.85,-1.26 2.97,-0.90 3.08,-0.54 3.08,-0.54 L 3.08,-0.54 Z"></path></g></svg>
