<?xml version="1.0" standalone="no"?>
<!DOCTYPE svg PUBLIC "-//W3C//DTD SVG 1.1//EN" "http://www.w3.org/Graphics/SVG/1.1/DTD/svg11.dtd">
<svg version="1.1" xmlns="http://www.w3.org/2000/svg" viewBox="0 0 917.2255305150659 934.6132934383986" width="917.2255305150659" height="934.6132934383986"><!-- svg-source:excalidraw --><metadata></metadata><defs><style class="style-fonts">
      </style></defs><g transform="translate(240.67569455226192 392.4297634065633) rotate(0 92.1175619732756 87.95809909290165)" stroke="none"><path fill="#4f3866" d="M -40.85,3.86 Q -40.85,3.86 -44.83,2.58 -48.81,1.30 -57.30,3.56 -65.79,5.83 -74.56,10.67 -83.34,15.52 -92.04,22.71 -100.73,29.90 -108.84,38.15 -116.95,46.40 -123.14,54.26 -129.33,62.12 -132.75,69.58 -136.16,77.05 -135.86,80.16 -135.55,83.27 -130.18,84.96 -124.82,86.66 -114.93,87.60 -105.04,88.55 -89.75,89.02 -74.45,89.48 -64.21,90.24 -53.97,91.00 -47.89,92.91 -41.81,94.83 -38.31,98.69 -34.82,102.55 -35.07,107.63 -35.31,112.72 -41.86,120.13 -48.40,127.54 -56.57,134.20 -64.74,140.87 -73.82,147.57 -82.89,154.28 -91.53,160.30 -100.17,166.33 -108.95,171.30 -117.73,176.27 -123.32,178.89 -128.90,181.52 -131.76,182.63 -134.61,183.73 -135.18,184.18 -135.75,184.62 -136.35,184.78 -136.96,184.94 -137.59,184.94 -138.22,184.95 -138.83,184.80 -139.44,184.66 -140.00,184.37 -140.56,184.09 -141.03,183.67 -141.50,183.26 -141.86,182.75 -142.23,182.23 -142.45,181.65 -142.68,181.06 -142.76,180.44 -142.84,179.82 -142.77,179.20 -142.70,178.57 -142.49,177.98 -142.27,177.39 -141.92,176.87 -141.57,176.35 -141.10,175.93 -140.63,175.51 -140.08,175.22 -139.53,174.92 -134.70,172.75 -129.87,170.58 -122.66,166.98 -115.45,163.39 -106.20,159.12 -96.95,154.86 -86.87,150.72 -76.79,146.58 -67.24,142.71 -57.68,138.83 -47.04,133.98 -36.40,129.12 -28.12,124.81 -19.84,120.50 -13.00,116.15 -6.16,111.80 0.02,107.45 6.21,103.09 11.82,98.54 17.42,93.99 20.20,91.24 22.98,88.49 16.78,88.42 10.59,88.34 6.01,90.30 1.43,92.26 -3.14,95.29 -7.71,98.32 -12.03,102.97 -16.34,107.63 -18.22,111.83 -20.10,116.04 -20.55,119.95 -20.99,123.87 -18.92,127.15 -16.84,130.43 -12.48,133.07 -8.12,135.71 1.07,137.07 10.27,138.43 18.80,137.81 27.34,137.20 35.10,134.85 42.87,132.50 50.71,128.76 58.55,125.02 68.03,118.26 77.52,111.50 84.54,105.50 91.55,99.50 96.63,94.90 101.71,90.29 104.68,87.41 107.65,84.54 109.65,82.73 111.64,80.92 112.18,80.51 112.71,80.10 113.33,79.84 113.94,79.57 114.60,79.45 115.27,79.34 115.94,79.39 116.61,79.44 117.25,79.64 117.88,79.85 118.46,80.21 119.03,80.56 119.50,81.04 119.97,81.52 120.31,82.10 120.65,82.68 120.84,83.32 121.03,83.97 121.06,84.64 121.10,85.31 120.97,85.97 120.84,86.63 120.56,87.24 120.27,87.85 119.85,88.37 119.43,88.90 120.02,92.88 120.60,96.86 119.63,102.26 118.67,107.67 117.05,115.01 115.44,122.34 113.70,128.28 111.97,134.22 110.34,138.48 108.71,142.75 107.91,144.79 107.11,146.83 106.77,147.45 106.43,148.08 105.96,148.61 105.48,149.13 104.89,149.53 104.31,149.93 103.64,150.18 102.97,150.42 102.27,150.50 101.56,150.58 100.86,150.49 100.15,150.40 99.49,150.14 98.83,149.88 98.25,149.47 97.67,149.07 97.20,148.53 96.73,147.99 96.41,147.36 96.08,146.73 95.92,146.04 95.76,145.35 95.76,144.64 95.77,143.93 95.94,143.24 96.12,142.55 100.05,137.24 103.98,131.92 109.64,125.35 115.31,118.78 121.93,111.70 128.55,104.61 134.57,98.70 140.59,92.79 145.40,88.44 150.21,84.10 155.84,81.92 161.46,79.75 163.65,81.36 165.84,82.97 167.17,90.12 168.50,97.27 168.94,103.22 169.38,109.16 170.14,113.90 170.90,118.65 172.16,121.53 173.42,124.42 177.86,126.44 182.30,128.46 188.68,129.48 195.06,130.51 202.61,129.21 210.16,127.91 218.17,124.70 226.18,121.48 233.34,117.00 240.51,112.51 246.36,106.03 252.22,99.55 255.21,94.43 258.21,89.30 259.31,85.60 260.41,81.91 260.80,79.29 261.19,76.68 263.60,76.99 266.02,77.31 261.45,81.35 256.88,85.38 251.55,90.36 246.23,95.34 239.53,102.98 232.83,110.63 228.10,117.48 223.38,124.33 220.68,130.24 217.99,136.14 216.91,140.34 215.82,144.54 217.85,146.66 219.88,148.77 222.60,147.65 225.33,146.53 229.28,143.23 233.24,139.94 239.99,130.41 246.74,120.88 252.53,108.98 258.32,97.08 262.21,83.78 266.10,70.48 267.87,58.26 269.64,46.04 270.32,36.82 270.99,27.60 270.73,21.88 270.46,16.16 270.39,14.10 270.32,12.04 270.40,11.35 270.48,10.66 270.72,10.01 270.96,9.36 271.35,8.78 271.74,8.20 272.25,7.74 272.77,7.27 273.38,6.94 274.00,6.61 274.67,6.44 275.35,6.27 276.04,6.26 276.74,6.26 277.41,6.42 278.09,6.58 278.71,6.90 279.33,7.21 279.85,7.67 280.38,8.13 280.78,8.70 281.18,9.27 281.43,9.92 281.68,10.56 281.77,11.25 281.86,11.94 281.84,14.35 281.81,16.75 281.58,23.00 281.36,29.25 280.07,41.04 278.78,52.82 277.85,63.51 276.91,74.20 276.23,84.27 275.54,94.34 275.26,103.04 274.97,111.74 275.82,119.63 276.68,127.52 278.62,131.90 280.57,136.29 283.09,138.33 285.60,140.37 288.30,141.06 291.00,141.76 293.61,141.95 296.23,142.15 299.58,140.03 302.94,137.90 306.69,134.88 310.44,131.86 313.87,128.00 317.29,124.14 320.36,118.38 323.43,112.62 325.79,107.79 328.15,102.97 328.37,102.60 328.59,102.23 328.91,101.96 329.23,101.68 329.62,101.52 330.02,101.36 330.44,101.33 330.86,101.30 331.28,101.42 331.69,101.53 332.04,101.76 332.39,102.00 332.65,102.33 332.91,102.67 333.05,103.07 333.19,103.47 333.19,103.90 333.20,104.32 333.07,104.73 332.93,105.13 332.68,105.47 332.42,105.81 332.07,106.05 331.72,106.29 331.32,106.41 330.91,106.53 330.48,106.51 330.06,106.49 329.66,106.33 329.27,106.18 328.94,105.91 328.61,105.63 328.39,105.27 328.17,104.91 328.08,104.50 327.98,104.08 328.02,103.66 328.07,103.24 328.24,102.85 328.42,102.46 328.71,102.15 329.00,101.84 329.37,101.64 329.74,101.44 330.16,101.36 330.58,101.29 331.00,101.36 331.42,101.42 331.80,101.62 332.18,101.81 332.47,102.12 332.76,102.43 332.95,102.81 333.13,103.20 333.18,103.62 333.23,104.04 333.14,104.46 333.05,104.87 333.05,104.87 333.05,104.87 331.53,110.03 330.01,115.18 327.82,122.92 325.64,130.67 321.76,135.87 317.89,141.07 313.15,144.84 308.41,148.61 302.28,151.28 296.15,153.96 291.64,153.53 287.12,153.11 282.45,151.22 277.77,149.34 273.79,145.30 269.81,141.26 267.33,135.08 264.85,128.90 263.96,120.12 263.07,111.34 263.39,102.42 263.70,93.50 264.44,83.34 265.18,73.17 266.14,62.32 267.11,51.48 268.48,40.14 269.85,28.81 270.09,22.76 270.34,16.71 270.33,14.38 270.32,12.05 270.40,11.35 270.48,10.66 270.72,10.01 270.96,9.36 271.35,8.78 271.74,8.20 272.25,7.74 272.77,7.27 273.38,6.94 274.00,6.62 274.67,6.44 275.35,6.27 276.04,6.26 276.74,6.26 277.41,6.42 278.09,6.58 278.71,6.90 279.33,7.21 279.85,7.67 280.38,8.13 280.78,8.70 281.18,9.27 281.43,9.91 281.68,10.56 281.77,11.25 281.86,11.94 281.84,14.00 281.81,16.06 281.65,22.27 281.49,28.47 280.60,37.99 279.71,47.52 277.80,60.41 275.89,73.30 271.84,87.44 267.79,101.58 261.77,114.38 255.75,127.17 248.10,138.15 240.45,149.12 234.39,153.46 228.33,157.81 222.32,158.66 216.31,159.51 211.78,156.60 207.24,153.68 205.71,148.02 204.18,142.35 205.60,136.72 207.02,131.09 210.23,124.28 213.43,117.47 218.60,110.06 223.77,102.64 230.94,94.60 238.12,86.55 243.74,81.43 249.36,76.30 254.02,72.60 258.68,68.89 261.56,68.14 264.43,67.39 268.30,70.13 272.18,72.88 272.38,75.85 272.58,78.82 271.77,82.13 270.96,85.45 269.24,90.13 267.51,94.80 263.86,100.81 260.21,106.82 253.32,114.23 246.43,121.65 238.44,126.78 230.45,131.92 221.24,135.69 212.04,139.46 202.59,140.82 193.15,142.19 184.87,140.53 176.58,138.88 170.03,134.60 163.48,130.32 161.31,125.45 159.14,120.58 158.33,115.27 157.53,109.96 157.19,104.17 156.85,98.39 157.14,95.29 157.42,92.19 152.76,96.29 148.10,100.39 142.30,106.16 136.50,111.94 130.16,118.94 123.81,125.95 118.50,132.41 113.19,138.88 110.15,142.85 107.11,146.83 106.77,147.45 106.43,148.08 105.96,148.61 105.48,149.13 104.89,149.53 104.31,149.93 103.64,150.18 102.97,150.42 102.27,150.50 101.56,150.58 100.86,150.49 100.15,150.40 99.49,150.14 98.83,149.88 98.25,149.48 97.67,149.07 97.20,148.53 96.73,147.99 96.41,147.36 96.08,146.73 95.92,146.04 95.76,145.35 95.76,144.64 95.77,143.93 95.94,143.24 96.12,142.55 96.96,140.53 97.80,138.51 99.31,134.71 100.81,130.92 102.47,125.34 104.13,119.76 105.82,112.67 107.50,105.57 108.50,100.48 109.50,95.38 110.02,92.33 110.55,89.29 111.09,85.10 111.64,80.92 112.18,80.51 112.71,80.10 113.33,79.84 113.94,79.57 114.60,79.45 115.27,79.34 115.94,79.39 116.61,79.44 117.25,79.64 117.88,79.85 118.45,80.21 119.03,80.56 119.50,81.04 119.96,81.52 120.31,82.10 120.65,82.68 120.84,83.32 121.03,83.97 121.06,84.64 121.10,85.31 120.97,85.97 120.84,86.63 120.56,87.24 120.27,87.85 119.85,88.37 119.43,88.90 117.32,90.62 115.22,92.34 112.13,95.34 109.04,98.33 103.85,103.08 98.67,107.82 91.28,114.13 83.90,120.45 73.62,127.76 63.34,135.08 54.69,139.14 46.04,143.19 37.08,145.78 28.12,148.37 18.27,148.94 8.43,149.52 -2.82,147.34 -14.08,145.16 -20.24,140.60 -26.40,136.04 -29.17,129.83 -31.95,123.61 -31.15,117.47 -30.36,111.33 -27.50,105.65 -24.64,99.97 -19.26,94.42 -13.88,88.87 -8.30,85.37 -2.73,81.88 3.19,79.66 9.12,77.45 14.78,76.85 20.44,76.26 25.95,77.47 31.47,78.69 33.19,81.36 34.92,84.04 34.38,87.66 33.85,91.28 32.18,93.68 30.51,96.08 27.33,99.18 24.14,102.28 18.25,107.04 12.35,111.80 5.95,116.31 -0.43,120.81 -7.66,125.41 -14.89,130.01 -23.42,134.44 -31.96,138.87 -42.81,143.80 -53.66,148.73 -63.19,152.61 -72.72,156.49 -82.60,160.54 -92.47,164.58 -101.60,168.77 -110.72,172.96 -118.17,176.60 -125.61,180.25 -130.68,182.43 -135.74,184.62 -136.35,184.78 -136.96,184.94 -137.59,184.94 -138.22,184.95 -138.83,184.80 -139.44,184.66 -140.00,184.37 -140.56,184.09 -141.03,183.67 -141.50,183.26 -141.86,182.75 -142.23,182.24 -142.45,181.65 -142.68,181.07 -142.76,180.44 -142.84,179.82 -142.77,179.20 -142.71,178.57 -142.49,177.98 -142.27,177.39 -141.92,176.87 -141.57,176.35 -141.10,175.93 -140.64,175.51 -140.08,175.22 -139.53,174.92 -139.13,174.45 -138.74,173.98 -136.07,172.94 -133.41,171.89 -128.18,169.46 -122.95,167.02 -114.59,162.32 -106.23,157.62 -97.70,151.69 -89.18,145.75 -80.29,139.22 -71.40,132.68 -63.70,126.45 -56.00,120.21 -50.53,115.14 -45.07,110.07 -45.26,107.03 -45.44,103.99 -50.11,102.41 -54.78,100.83 -64.77,100.07 -74.76,99.31 -90.42,98.81 -106.09,98.30 -117.32,96.98 -128.55,95.65 -135.61,92.00 -142.68,88.35 -144.13,81.11 -145.59,73.87 -141.58,64.79 -137.56,55.72 -130.97,47.39 -124.38,39.06 -115.80,30.46 -107.22,21.85 -97.63,14.33 -88.03,6.80 -78.02,1.61 -68.00,-3.57 -57.59,-5.57 -47.17,-7.56 -42.85,-6.94 -38.52,-6.32 -37.93,-6.10 -37.34,-5.89 -36.81,-5.54 -36.29,-5.19 -35.87,-4.73 -35.44,-4.26 -35.14,-3.71 -34.84,-3.16 -34.68,-2.55 -34.52,-1.94 -34.50,-1.31 -34.49,-0.68 -34.63,-0.07 -34.78,0.54 -35.06,1.10 -35.34,1.66 -35.75,2.14 -36.16,2.62 -36.67,2.98 -37.19,3.35 -37.77,3.58 -38.36,3.81 -38.98,3.90 -39.60,3.99 -40.23,3.92 -40.85,3.85 -40.85,3.86 L -40.85,3.86 Z"></path></g></svg>
