<?xml version="1.0" standalone="no"?>
<!DOCTYPE svg PUBLIC "-//W3C//DTD SVG 1.1//EN" "http://www.w3.org/Graphics/SVG/1.1/DTD/svg11.dtd">
<svg version="1.1" xmlns="http://www.w3.org/2000/svg" viewBox="0 0 917.2255305150659 934.6132934383986" width="917.2255305150659" height="934.6132934383986"><!-- svg-source:excalidraw --><metadata></metadata><defs><style class="style-fonts">
      </style></defs><g transform="translate(167.62204197944834 420.70832144209635) rotate(0 176.828125 62.3671875)" stroke="none"><path fill="#4f3866" d="M -0.05,4.65 Q -0.05,4.65 -5.18,5.13 -10.31,5.61 -14.23,6.73 -18.15,7.85 -24.36,10.86 -30.57,13.88 -37.02,17.97 -43.46,22.07 -50.32,27.54 -57.17,33.00 -64.18,39.66 -71.18,46.32 -77.33,53.68 -83.48,61.04 -88.64,71.59 -93.80,82.13 -96.31,91.70 -98.81,101.26 -99.53,109.37 -100.24,117.47 -98.61,123.07 -96.97,128.67 -93.86,131.89 -90.75,135.10 -82.41,135.45 -74.07,135.79 -64.80,132.19 -55.53,128.59 -45.65,121.48 -35.78,114.37 -26.57,105.27 -17.36,96.17 -9.20,84.67 -1.05,73.18 3.66,64.69 8.38,56.19 11.01,50.55 13.64,44.92 14.94,41.96 16.24,39.01 16.64,38.52 17.05,38.04 17.41,37.42 17.78,36.81 18.28,36.29 18.78,35.78 19.38,35.40 19.99,35.02 20.67,34.80 21.35,34.58 22.07,34.53 22.78,34.48 23.49,34.60 24.19,34.72 24.85,35.00 25.51,35.29 26.08,35.72 26.65,36.16 27.10,36.71 27.54,37.27 27.85,37.92 28.15,38.57 28.29,39.27 28.43,39.98 28.39,40.69 28.36,41.41 28.15,42.09 27.95,42.78 27.59,48.20 27.24,53.61 26.42,58.73 25.60,63.85 24.02,70.02 22.44,76.19 20.31,82.69 18.18,89.20 15.70,96.56 13.22,103.92 11.65,109.30 10.09,114.68 9.21,118.73 8.34,122.77 7.92,125.50 7.49,128.24 7.41,129.04 7.32,129.85 7.12,130.58 6.91,131.30 6.54,131.96 6.17,132.61 5.65,133.16 5.13,133.71 4.49,134.11 3.86,134.52 3.15,134.76 2.43,135.01 1.68,135.07 0.93,135.14 0.19,135.02 -0.55,134.91 -1.24,134.62 -1.94,134.33 -2.54,133.88 -3.15,133.43 -3.63,132.85 -4.11,132.27 -4.44,131.59 -4.77,130.91 -4.92,130.17 -5.08,129.43 -5.05,128.68 -5.03,127.93 -3.19,124.04 -1.35,120.15 1.42,113.76 4.20,107.36 10.19,95.04 16.18,82.73 22.17,72.57 28.16,62.41 32.86,55.59 37.56,48.78 40.18,45.19 42.81,41.60 43.84,40.33 44.88,39.06 45.41,38.51 45.95,37.96 46.61,37.55 47.26,37.14 47.99,36.89 48.73,36.65 49.50,36.60 50.27,36.54 51.03,36.66 51.79,36.79 52.50,37.10 53.21,37.40 53.82,37.87 54.44,38.34 54.92,38.94 55.41,39.54 55.74,40.24 56.07,40.94 56.22,41.69 56.37,42.45 56.33,43.22 56.30,43.99 56.08,44.74 55.86,45.48 55.47,46.14 55.08,46.81 56.05,44.73 57.02,42.65 57.84,46.67 58.67,50.69 59.10,55.47 59.54,60.24 59.97,67.31 60.40,74.38 61.15,79.59 61.89,84.80 63.23,88.00 64.57,91.20 66.20,92.62 67.82,94.05 74.04,93.49 80.26,92.92 84.92,91.11 89.57,89.30 94.29,86.68 99.02,84.06 103.62,80.88 108.22,77.70 112.09,74.10 115.96,70.49 118.97,66.34 121.99,62.18 124.91,56.07 127.82,49.97 129.20,45.58 130.58,41.19 126.70,43.13 122.82,45.07 118.57,48.48 114.33,51.88 107.98,58.74 101.63,65.59 96.85,72.36 92.07,79.13 89.54,85.44 87.02,91.74 86.45,97.26 85.89,102.78 87.87,106.63 89.85,110.48 97.24,113.18 104.63,115.88 113.40,116.64 122.17,117.40 131.16,115.01 140.15,112.62 149.05,107.93 157.96,103.25 168.27,95.14 178.57,87.04 186.30,79.74 194.02,72.44 198.89,66.61 203.77,60.78 206.08,59.39 208.39,58.00 211.72,59.10 215.05,60.21 212.75,61.98 210.44,63.76 206.95,66.86 203.45,69.95 198.79,74.41 194.14,78.87 186.84,86.29 179.55,93.71 173.46,99.99 167.36,106.28 163.59,111.01 159.81,115.73 158.35,118.59 156.89,121.45 161.46,121.43 166.02,121.40 170.15,119.70 174.28,118.00 180.78,114.05 187.27,110.10 194.76,103.83 202.24,97.57 209.26,88.33 216.28,79.09 219.51,72.91 222.73,66.74 227.11,62.21 231.48,57.69 234.61,60.92 237.75,64.14 237.04,68.16 236.34,72.17 234.41,78.29 232.48,84.40 230.62,90.53 228.77,96.66 227.75,102.76 226.74,108.85 226.68,111.49 226.62,114.13 229.30,113.31 231.97,112.49 236.33,109.52 240.69,106.56 249.43,98.44 258.18,90.32 265.97,81.26 273.76,72.20 279.94,62.15 286.13,52.11 290.95,40.92 295.76,29.72 299.70,18.86 303.63,8.00 306.45,-0.76 309.26,-9.53 310.48,-13.59 311.69,-17.65 312.07,-19.24 312.45,-20.83 312.77,-21.53 313.08,-22.23 313.56,-22.83 314.03,-23.43 314.63,-23.90 315.24,-24.37 315.93,-24.68 316.63,-24.99 317.39,-25.13 318.14,-25.26 318.90,-25.22 319.66,-25.17 320.39,-24.94 321.12,-24.71 321.78,-24.31 322.43,-23.91 322.97,-23.37 323.51,-22.83 323.90,-22.17 324.30,-21.52 324.52,-20.79 324.75,-20.06 324.79,-19.29 324.84,-18.53 324.70,-17.78 324.56,-17.03 324.47,-10.55 324.37,-4.08 322.58,3.73 320.79,11.55 317.89,21.41 314.98,31.27 311.84,42.30 308.70,53.33 305.70,66.77 302.69,80.22 300.58,90.81 298.46,101.41 296.40,109.69 294.34,117.97 292.70,123.37 291.05,128.77 290.25,131.20 289.44,133.64 289.46,134.08 289.48,134.52 289.16,135.21 288.83,135.90 288.36,136.49 287.88,137.08 287.27,137.54 286.66,138.00 285.96,138.30 285.27,138.60 284.51,138.73 283.76,138.86 283.00,138.80 282.25,138.74 281.52,138.50 280.80,138.26 280.15,137.86 279.51,137.46 278.98,136.91 278.45,136.36 278.06,135.70 277.68,135.05 277.47,134.32 277.25,133.59 277.22,132.83 277.18,132.07 277.33,131.32 277.48,130.57 279.83,127.35 282.18,124.13 285.50,120.26 288.82,116.39 292.98,112.09 297.15,107.79 303.59,102.88 310.04,97.97 316.02,94.20 322.00,90.43 328.08,87.08 334.15,83.73 340.35,80.72 346.55,77.72 352.57,74.55 358.59,71.37 361.43,69.15 364.26,66.94 365.12,64.21 365.98,61.49 364.57,59.29 363.17,57.10 360.84,55.54 358.50,53.98 355.40,54.42 352.30,54.87 350.32,57.34 348.34,59.82 345.27,66.02 342.20,72.22 340.41,78.43 338.63,84.64 337.88,90.66 337.14,96.67 338.28,101.56 339.42,106.45 341.85,109.82 344.28,113.19 349.88,114.95 355.48,116.70 361.99,117.19 368.50,117.68 375.06,115.97 381.62,114.27 389.12,110.37 396.61,106.47 408.78,97.89 420.96,89.32 430.74,80.41 440.52,71.51 446.20,65.21 451.88,58.91 456.16,54.04 460.45,49.17 460.76,48.89 461.07,48.60 461.46,48.42 461.84,48.25 462.27,48.21 462.69,48.17 463.10,48.26 463.52,48.36 463.88,48.58 464.24,48.81 464.51,49.13 464.78,49.46 464.94,49.86 465.09,50.25 465.11,50.68 465.13,51.10 465.01,51.51 464.89,51.92 464.65,52.27 464.40,52.62 464.06,52.87 463.72,53.12 463.32,53.25 462.91,53.38 462.49,53.38 462.06,53.37 461.66,53.23 461.26,53.09 460.93,52.83 460.59,52.57 460.36,52.22 460.12,51.86 460.01,51.45 459.90,51.04 459.93,50.62 459.96,50.19 460.12,49.80 460.28,49.41 460.56,49.09 460.84,48.77 461.21,48.55 461.57,48.34 461.99,48.25 462.41,48.16 462.83,48.21 463.25,48.27 463.63,48.45 464.02,48.63 464.32,48.93 464.63,49.22 464.82,49.60 465.02,49.98 465.08,50.40 465.14,50.82 465.07,51.24 465.00,51.66 464.79,52.03 464.59,52.40 464.59,52.40 464.59,52.40 460.92,57.75 457.25,63.10 452.18,70.62 447.10,78.15 437.48,88.43 427.86,98.71 415.23,108.31 402.60,117.92 393.70,122.57 384.79,127.22 376.14,129.11 367.48,131.00 359.03,130.09 350.58,129.19 342.38,125.34 334.18,121.49 330.33,115.45 326.48,109.41 325.25,102.29 324.01,95.18 324.99,88.03 325.97,80.89 328.24,73.53 330.51,66.16 334.73,58.41 338.95,50.66 343.44,46.69 347.92,42.72 352.75,41.73 357.57,40.75 361.66,42.13 365.75,43.51 369.25,46.14 372.75,48.77 374.51,50.91 376.27,53.05 377.34,55.75 378.42,58.44 378.23,61.61 378.04,64.77 377.15,67.50 376.27,70.23 374.12,73.35 371.98,76.47 368.19,79.35 364.40,82.23 358.22,85.54 352.04,88.84 346.15,91.82 340.26,94.79 334.50,97.97 328.74,101.14 323.21,104.61 317.68,108.08 311.96,112.36 306.25,116.65 302.36,120.65 298.47,124.66 293.97,129.59 289.48,134.52 289.16,135.21 288.83,135.90 288.36,136.49 287.88,137.08 287.27,137.54 286.66,138.00 285.96,138.30 285.27,138.60 284.51,138.73 283.76,138.85 283.00,138.80 282.25,138.74 281.52,138.50 280.80,138.26 280.15,137.86 279.51,137.46 278.98,136.91 278.45,136.36 278.06,135.71 277.68,135.05 277.47,134.32 277.25,133.59 277.22,132.83 277.18,132.07 277.33,131.32 277.48,130.57 277.47,130.28 277.46,129.99 278.27,127.52 279.08,125.04 280.67,120.04 282.26,115.05 284.15,107.00 286.05,98.94 288.17,88.21 290.29,77.48 293.31,63.65 296.33,49.81 299.49,38.70 302.64,27.58 305.52,18.10 308.40,8.63 310.10,1.69 311.80,-5.23 312.24,-9.53 312.69,-13.83 312.57,-17.33 312.45,-20.83 312.77,-21.53 313.08,-22.23 313.56,-22.83 314.03,-23.43 314.63,-23.90 315.24,-24.37 315.93,-24.68 316.63,-24.99 317.38,-25.13 318.14,-25.26 318.90,-25.22 319.66,-25.17 320.39,-24.94 321.12,-24.71 321.78,-24.31 322.43,-23.91 322.97,-23.37 323.51,-22.83 323.90,-22.17 324.30,-21.52 324.52,-20.79 324.75,-20.06 324.79,-19.29 324.84,-18.53 324.70,-17.78 324.56,-17.03 323.85,-15.54 323.14,-14.05 321.80,-9.97 320.46,-5.90 317.54,2.99 314.62,11.90 310.70,23.20 306.78,34.50 301.56,46.46 296.33,58.42 289.60,69.22 282.86,80.02 274.61,89.55 266.36,99.08 256.79,108.03 247.23,116.99 240.61,120.85 233.99,124.71 228.34,124.77 222.69,124.83 218.92,121.17 215.16,117.51 214.59,112.15 214.03,106.79 215.20,99.86 216.37,92.93 218.26,86.70 220.14,80.47 221.93,74.88 223.73,69.29 224.74,65.78 225.76,62.27 227.87,65.19 229.99,68.11 231.40,70.12 232.82,72.12 229.08,78.98 225.35,85.85 217.67,96.26 210.00,106.68 201.78,113.63 193.56,120.57 185.93,125.07 178.29,129.58 171.69,131.53 165.09,133.47 160.06,132.77 155.04,132.07 151.12,129.51 147.21,126.95 146.46,121.63 145.71,116.31 147.87,112.12 150.04,107.93 154.24,102.75 158.43,97.57 164.62,91.27 170.81,84.98 178.33,77.57 185.85,70.17 190.70,65.57 195.56,60.97 199.52,57.52 203.47,54.08 206.03,52.36 208.59,50.64 212.95,53.08 217.30,55.52 214.69,61.63 212.09,67.74 206.80,74.04 201.52,80.34 193.50,87.97 185.48,95.60 174.53,104.63 163.57,113.67 153.43,119.15 143.28,124.63 132.22,127.33 121.17,130.02 110.37,128.81 99.58,127.61 89.66,122.51 79.74,117.41 76.49,109.86 73.24,102.32 74.16,94.64 75.07,86.97 78.29,79.34 81.51,71.71 86.85,64.25 92.19,56.79 99.25,49.30 106.31,41.80 111.36,37.85 116.41,33.89 121.26,31.38 126.11,28.87 130.91,28.82 135.71,28.77 138.91,31.59 142.11,34.40 142.33,39.70 142.56,44.99 140.87,50.19 139.18,55.39 135.73,62.57 132.28,69.74 128.46,74.81 124.65,79.88 120.07,84.06 115.49,88.23 110.34,91.76 105.19,95.29 99.64,98.31 94.10,101.33 88.10,103.51 82.11,105.69 75.16,106.38 68.21,107.07 63.65,105.25 59.09,103.44 55.90,99.87 52.71,96.29 50.88,91.49 49.05,86.69 48.25,80.92 47.45,75.14 47.06,68.26 46.68,61.37 46.32,57.08 45.95,52.78 45.75,50.55 45.54,48.31 45.21,43.69 44.87,39.06 45.41,38.51 45.95,37.96 46.60,37.55 47.26,37.14 47.99,36.90 48.73,36.65 49.50,36.60 50.27,36.54 51.03,36.66 51.79,36.79 52.50,37.10 53.21,37.40 53.82,37.87 54.44,38.34 54.92,38.94 55.41,39.54 55.74,40.24 56.07,40.94 56.22,41.69 56.37,42.45 56.33,43.22 56.30,43.99 56.08,44.73 55.86,45.48 55.47,46.14 55.08,46.81 53.90,47.97 52.72,49.13 50.14,52.41 47.55,55.69 43.09,62.13 38.63,68.57 32.91,78.30 27.19,88.03 21.41,100.17 15.63,112.32 12.69,119.13 9.75,125.95 8.53,127.90 7.32,129.85 7.12,130.57 6.91,131.30 6.54,131.96 6.17,132.61 5.65,133.16 5.13,133.71 4.50,134.11 3.86,134.52 3.15,134.76 2.43,135.01 1.68,135.07 0.93,135.14 0.19,135.02 -0.55,134.91 -1.24,134.62 -1.94,134.33 -2.54,133.88 -3.15,133.43 -3.63,132.85 -4.11,132.27 -4.44,131.59 -4.77,130.91 -4.92,130.17 -5.08,129.43 -5.05,128.68 -5.03,127.93 -4.97,127.12 -4.91,126.31 -4.42,123.20 -3.94,120.10 -2.97,115.63 -1.99,111.16 -0.33,105.49 1.32,99.82 3.90,92.50 6.48,85.18 8.65,79.16 10.82,73.15 12.31,67.55 13.80,61.95 14.58,57.07 15.36,52.18 15.83,48.44 16.29,44.69 16.67,41.37 17.05,38.04 17.41,37.42 17.77,36.81 18.27,36.29 18.77,35.78 19.38,35.40 19.99,35.02 20.67,34.80 21.35,34.58 22.07,34.53 22.78,34.48 23.49,34.60 24.19,34.72 24.85,35.00 25.51,35.29 26.08,35.72 26.65,36.16 27.10,36.71 27.54,37.27 27.85,37.92 28.15,38.57 28.29,39.27 28.42,39.98 28.39,40.69 28.36,41.41 28.15,42.09 27.95,42.78 27.26,43.34 26.57,43.89 25.29,46.86 24.02,49.82 21.15,55.79 18.29,61.76 13.18,70.73 8.08,79.70 -0.68,91.89 -9.45,104.08 -19.23,113.88 -29.01,123.69 -40.16,131.77 -51.30,139.86 -63.05,143.88 -74.79,147.91 -86.34,146.19 -97.89,144.46 -103.26,138.47 -108.63,132.48 -110.62,124.53 -112.61,116.59 -111.71,107.32 -110.81,98.06 -107.84,87.33 -104.87,76.61 -98.83,64.94 -92.79,53.26 -86.10,45.45 -79.41,37.64 -71.99,30.64 -64.56,23.65 -57.17,17.86 -49.77,12.06 -42.69,7.65 -35.61,3.24 -28.30,-0.13 -21.00,-3.51 -15.63,-4.68 -10.27,-5.85 -5.10,-5.25 0.05,-4.65 0.61,-4.58 1.16,-4.51 1.69,-4.30 2.21,-4.10 2.67,-3.77 3.13,-3.45 3.49,-3.02 3.86,-2.60 4.12,-2.10 4.37,-1.60 4.50,-1.05 4.63,-0.50 4.62,0.05 4.61,0.61 4.47,1.16 4.33,1.70 4.07,2.19 3.80,2.69 3.42,3.10 3.04,3.52 2.58,3.83 2.11,4.15 1.58,4.34 1.06,4.53 0.50,4.59 -0.05,4.65 -0.05,4.65 L -0.05,4.65 Z"></path></g><g transform="translate(410.54001072944834 456.71613394209635) rotate(0 58.1796875 -16.716796875)" stroke="none"></g></svg>
