<?xml version="1.0" standalone="no"?>
<!DOCTYPE svg PUBLIC "-//W3C//DTD SVG 1.1//EN" "http://www.w3.org/Graphics/SVG/1.1/DTD/svg11.dtd">
<svg version="1.1" xmlns="http://www.w3.org/2000/svg" viewBox="0 0 917.2255305150659 934.6132934383986" width="917.2255305150659" height="934.6132934383986"><!-- svg-source:excalidraw --><metadata></metadata><defs><style class="style-fonts">
      </style></defs><g transform="translate(259.0364148990052 256.33986276747055) rotate(0 187.57758691555534 -47.83740618031561)" stroke="none"><path fill="#4f3866" d="M -1.25,-4.70 Q -1.25,-4.70 8.13,-7.84 17.53,-10.99 28.96,-18.29 40.39,-25.58 53.58,-37.31 66.78,-49.04 78.64,-62.63 90.50,-76.23 99.03,-91.58 107.57,-106.93 111.31,-116.96 115.06,-126.99 116.39,-132.87 117.72,-138.76 114.01,-136.25 110.31,-133.74 103.21,-127.78 96.11,-121.82 87.48,-113.25 78.84,-104.69 70.15,-93.97 61.46,-83.26 51.70,-66.61 41.95,-49.95 35.54,-35.53 29.13,-21.10 25.89,-9.06 22.65,2.97 21.99,11.79 21.34,20.60 27.79,26.76 34.25,32.93 43.19,35.51 52.14,38.10 62.66,37.30 73.17,36.50 84.16,32.56 95.15,28.61 105.30,22.07 115.44,15.53 125.17,5.35 134.90,-4.82 140.50,-12.90 146.10,-20.98 148.44,-26.86 150.79,-32.75 151.52,-36.46 152.25,-40.17 147.46,-36.68 142.67,-33.19 135.62,-25.87 128.58,-18.55 123.11,-11.05 117.64,-3.55 114.70,3.50 111.75,10.55 110.87,16.18 109.99,21.82 111.92,25.20 113.84,28.58 121.28,31.19 128.73,33.81 137.33,35.18 145.94,36.56 154.77,34.69 163.61,32.83 173.92,27.01 184.23,21.19 195.86,11.22 207.49,1.25 221.29,-15.94 235.10,-33.15 245.09,-47.76 255.09,-62.37 262.32,-73.72 269.55,-85.06 274.47,-92.94 279.39,-100.82 281.97,-105.03 284.56,-109.25 284.87,-109.70 285.18,-110.14 285.63,-110.70 286.07,-111.26 286.64,-111.70 287.20,-112.13 287.86,-112.42 288.51,-112.71 289.22,-112.83 289.92,-112.96 290.63,-112.91 291.35,-112.86 292.03,-112.64 292.71,-112.42 293.32,-112.05 293.92,-111.67 294.43,-111.16 294.93,-110.65 295.29,-110.04 295.66,-109.43 295.86,-108.74 296.07,-108.06 296.11,-107.34 296.15,-106.63 296.01,-105.93 295.88,-105.23 295.58,-104.58 295.28,-103.93 292.47,-100.11 289.66,-96.30 284.64,-89.58 279.62,-82.85 273.40,-73.52 267.18,-64.18 260.20,-50.25 253.23,-36.31 249.06,-25.30 244.88,-14.28 242.99,-5.49 241.10,3.29 240.54,10.24 239.97,17.19 240.52,20.42 241.06,23.66 246.61,24.47 252.16,25.29 260.58,22.23 269.00,19.17 280.42,13.16 291.85,7.16 303.71,-0.06 315.58,-7.28 328.26,-16.63 340.94,-25.99 349.35,-33.18 357.77,-40.37 361.52,-44.97 365.27,-49.56 365.89,-52.40 366.51,-55.24 366.99,-55.69 367.48,-56.14 368.05,-56.46 368.63,-56.79 369.27,-56.96 369.91,-57.14 370.57,-57.15 371.23,-57.17 371.87,-57.03 372.52,-56.89 373.11,-56.59 373.71,-56.30 374.21,-55.88 374.72,-55.45 375.11,-54.92 375.50,-54.38 375.75,-53.77 376.00,-53.16 376.10,-52.50 376.20,-51.85 376.13,-51.19 376.07,-50.53 375.85,-49.91 375.63,-49.28 375.27,-48.73 374.91,-48.18 369.56,-47.26 364.21,-46.34 360.66,-43.70 357.10,-41.05 352.05,-36.00 346.99,-30.94 343.04,-25.29 339.10,-19.64 337.50,-14.97 335.90,-10.30 338.83,-4.26 341.76,1.77 345.48,7.71 349.19,13.64 352.03,19.38 354.87,25.11 355.21,32.04 355.55,38.96 349.38,44.72 343.21,50.47 334.62,53.25 326.04,56.02 317.10,57.09 308.16,58.16 300.26,58.53 292.35,58.90 285.64,57.98 278.92,57.06 276.06,53.22 273.20,49.39 272.47,46.93 271.74,44.47 271.53,44.10 271.32,43.73 271.24,43.32 271.16,42.90 271.21,42.48 271.27,42.06 271.45,41.68 271.64,41.29 271.94,40.99 272.24,40.69 272.61,40.50 272.99,40.31 273.42,40.25 273.84,40.19 274.25,40.26 274.67,40.34 275.04,40.55 275.41,40.76 275.70,41.07 275.99,41.38 276.16,41.77 276.33,42.16 276.36,42.59 276.40,43.01 276.30,43.42 276.20,43.84 275.97,44.20 275.75,44.55 275.42,44.82 275.09,45.09 274.69,45.24 274.29,45.39 273.87,45.40 273.44,45.42 273.03,45.29 272.63,45.17 272.28,44.93 271.93,44.68 271.68,44.34 271.43,43.99 271.31,43.59 271.18,43.18 271.19,42.76 271.20,42.33 271.34,41.93 271.49,41.53 271.75,41.20 272.02,40.87 272.37,40.64 272.73,40.41 273.14,40.30 273.55,40.20 273.98,40.23 274.40,40.26 274.79,40.43 275.18,40.59 275.50,40.87 275.82,41.15 275.82,41.15 275.82,41.15 279.26,43.50 282.70,45.84 287.26,46.05 291.82,46.25 299.29,45.95 306.77,45.64 314.69,44.84 322.61,44.03 329.37,42.38 336.12,40.74 341.13,37.91 346.14,35.07 345.25,32.65 344.36,30.23 341.66,25.14 338.97,20.06 334.64,13.19 330.32,6.32 327.22,-2.97 324.12,-12.26 326.50,-19.54 328.88,-26.82 333.72,-33.29 338.56,-39.76 344.79,-45.42 351.02,-51.08 358.76,-53.16 366.51,-55.24 366.99,-55.69 367.47,-56.14 368.05,-56.46 368.63,-56.78 369.27,-56.96 369.91,-57.13 370.57,-57.15 371.23,-57.17 371.87,-57.03 372.52,-56.89 373.11,-56.59 373.71,-56.30 374.21,-55.88 374.72,-55.45 375.11,-54.92 375.50,-54.38 375.75,-53.77 376.00,-53.16 376.10,-52.50 376.20,-51.85 376.13,-51.19 376.07,-50.53 375.85,-49.91 375.63,-49.28 375.27,-48.73 374.91,-48.18 373.92,-45.84 372.93,-43.51 368.48,-38.36 364.04,-33.21 355.52,-25.62 347.01,-18.02 334.21,-7.97 321.41,2.07 309.36,9.72 297.32,17.38 285.02,24.06 272.73,30.74 261.37,33.99 250.01,37.25 241.56,34.21 233.11,31.18 230.31,23.85 227.51,16.52 228.16,8.57 228.81,0.62 230.95,-9.05 233.09,-18.74 237.53,-30.36 241.97,-41.99 249.39,-56.59 256.81,-71.19 263.35,-80.72 269.90,-90.25 275.00,-96.83 280.11,-103.42 282.64,-106.78 285.18,-110.14 285.63,-110.70 286.07,-111.26 286.64,-111.70 287.20,-112.13 287.86,-112.42 288.51,-112.71 289.22,-112.83 289.92,-112.96 290.63,-112.91 291.35,-112.86 292.03,-112.64 292.71,-112.42 293.32,-112.05 293.92,-111.67 294.43,-111.16 294.93,-110.65 295.29,-110.04 295.66,-109.43 295.86,-108.74 296.07,-108.06 296.11,-107.34 296.15,-106.63 296.01,-105.93 295.88,-105.23 295.58,-104.58 295.28,-103.93 295.00,-103.46 294.71,-103.00 292.07,-98.73 289.44,-94.47 284.42,-86.62 279.41,-78.76 272.05,-67.28 264.69,-55.80 254.43,-40.83 244.17,-25.86 229.65,-7.86 215.13,10.12 202.60,20.83 190.07,31.54 178.13,38.17 166.18,44.80 155.18,46.88 144.19,48.95 133.95,47.24 123.72,45.52 113.81,40.56 103.89,35.60 100.73,28.39 97.56,21.18 98.76,13.36 99.97,5.55 103.69,-2.74 107.41,-11.05 113.52,-19.15 119.64,-27.26 127.25,-34.94 134.86,-42.62 139.77,-46.53 144.68,-50.44 149.13,-51.55 153.57,-52.66 157.65,-50.12 161.73,-47.57 162.95,-43.05 164.18,-38.54 162.99,-33.34 161.80,-28.15 158.76,-21.23 155.71,-14.31 149.50,-5.54 143.29,3.22 132.56,14.29 121.83,25.35 110.50,32.59 99.18,39.83 86.60,44.18 74.03,48.53 61.34,49.13 48.66,49.73 37.29,45.67 25.93,41.61 18.00,32.12 10.07,22.64 10.45,11.22 10.83,-0.18 14.41,-13.11 17.99,-26.04 24.71,-41.09 31.42,-56.14 41.71,-73.54 51.99,-90.95 61.15,-102.14 70.30,-113.33 79.35,-122.22 88.39,-131.10 96.21,-137.54 104.02,-143.98 110.69,-147.40 117.35,-150.82 121.40,-149.77 125.44,-148.71 127.50,-142.42 129.57,-136.13 127.92,-129.44 126.28,-122.76 122.14,-111.96 118.01,-101.16 108.88,-84.69 99.75,-68.23 87.34,-54.03 74.93,-39.84 60.92,-27.51 46.90,-15.19 33.86,-7.22 20.83,0.73 11.04,2.71 1.25,4.70 0.67,4.78 0.09,4.86 -0.48,4.80 -1.07,4.74 -1.62,4.55 -2.17,4.35 -2.66,4.03 -3.15,3.70 -3.55,3.27 -3.95,2.84 -4.23,2.32 -4.51,1.81 -4.66,1.24 -4.82,0.68 -4.83,0.09 -4.84,-0.49 -4.71,-1.06 -4.58,-1.63 -4.32,-2.16 -4.05,-2.68 -3.67,-3.13 -3.29,-3.57 -2.82,-3.92 -2.34,-4.26 -1.80,-4.48 -1.25,-4.70 -1.25,-4.70 L -1.25,-4.70 Z"></path></g><g transform="translate(452.3657048921957 211.5323199417844) rotate(0 73.53644607962997 -14.382926482202947)" stroke="none"><path fill="#4f3866" d="M -1.42,-4.43 Q -1.42,-4.43 8.53,-8.27 18.50,-12.12 33.36,-15.69 48.22,-19.26 64.92,-22.35 81.62,-25.43 97.29,-27.40 112.96,-29.37 122.65,-30.19 132.33,-31.01 139.52,-31.18 146.71,-31.36 147.14,-31.35 147.56,-31.34 147.96,-31.19 148.36,-31.05 148.69,-30.78 149.02,-30.52 149.25,-30.16 149.48,-29.80 149.58,-29.39 149.69,-28.98 149.65,-28.55 149.62,-28.13 149.45,-27.74 149.28,-27.35 149.00,-27.03 148.72,-26.72 148.35,-26.51 147.98,-26.30 147.56,-26.22 147.14,-26.14 146.72,-26.19 146.30,-26.25 145.92,-26.44 145.54,-26.63 145.24,-26.93 144.94,-27.23 144.75,-27.61 144.56,-27.99 144.50,-28.41 144.44,-28.83 144.52,-29.25 144.60,-29.66 144.81,-30.03 145.02,-30.40 145.34,-30.69 145.65,-30.97 146.04,-31.14 146.43,-31.31 146.86,-31.34 147.28,-31.38 147.69,-31.28 148.10,-31.17 148.46,-30.95 148.82,-30.72 149.09,-30.39 149.35,-30.06 149.50,-29.66 149.65,-29.26 149.66,-28.83 149.67,-28.41 149.55,-28.00 149.42,-27.60 149.17,-27.25 148.93,-26.91 148.58,-26.66 148.24,-26.41 147.83,-26.28 147.42,-26.16 147.43,-26.16 147.43,-26.16 140.45,-24.39 133.48,-22.62 124.00,-20.81 114.53,-19.00 99.18,-16.28 83.84,-13.56 67.41,-10.44 50.98,-7.31 36.53,-4.13 22.09,-0.95 11.76,1.74 1.42,4.43 0.87,4.54 0.32,4.64 -0.23,4.62 -0.79,4.59 -1.33,4.42 -1.87,4.26 -2.35,3.98 -2.83,3.69 -3.23,3.30 -3.64,2.90 -3.93,2.43 -4.23,1.95 -4.40,1.41 -4.57,0.88 -4.61,0.32 -4.65,-0.23 -4.55,-0.79 -4.46,-1.34 -4.23,-1.85 -4.01,-2.37 -3.66,-2.81 -3.32,-3.26 -2.88,-3.61 -2.44,-3.96 -1.93,-4.20 -1.42,-4.43 -1.42,-4.43 L -1.42,-4.43 Z"></path></g><g transform="translate(187.33925739093775 778.3080300887414) rotate(0 260.02875918686306 -73.81487774955576)" stroke="none"><path fill="#4f3866" d="M -3.50,-2.90 Q -3.50,-2.90 0.22,-8.55 3.96,-14.21 9.61,-21.72 15.25,-29.23 25.70,-43.17 36.16,-57.11 46.13,-70.69 56.11,-84.28 64.90,-97.28 73.70,-110.27 80.22,-121.65 86.75,-133.04 90.48,-141.64 94.21,-150.24 95.52,-156.09 96.83,-161.94 94.74,-160.03 92.65,-158.13 88.00,-154.00 83.36,-149.87 76.33,-141.73 69.31,-133.58 61.79,-124.46 54.27,-115.34 46.50,-105.51 38.73,-95.68 32.04,-85.32 25.36,-74.97 20.10,-61.33 14.85,-47.70 12.26,-36.15 9.68,-24.59 8.56,-15.27 7.45,-5.94 7.59,0.83 7.72,7.61 9.23,12.00 10.74,16.39 13.38,18.75 16.03,21.11 23.62,21.74 31.20,22.37 40.06,20.46 48.92,18.55 58.65,14.27 68.37,9.99 80.03,1.27 91.68,-7.45 100.53,-16.31 109.38,-25.18 115.54,-33.58 121.70,-41.98 124.97,-48.68 128.23,-55.37 129.46,-59.96 130.68,-64.55 131.16,-67.31 131.65,-70.06 131.78,-71.45 131.91,-72.84 132.15,-73.55 132.39,-74.26 132.80,-74.89 133.21,-75.51 133.75,-76.02 134.30,-76.54 134.95,-76.90 135.60,-77.27 136.32,-77.47 137.04,-77.67 137.79,-77.69 138.54,-77.71 139.27,-77.56 140.00,-77.40 140.67,-77.07 141.34,-76.74 141.92,-76.26 142.49,-75.78 142.93,-75.18 143.37,-74.58 143.66,-73.89 143.94,-73.20 144.06,-72.46 144.17,-71.72 144.10,-70.97 144.03,-70.23 141.23,-67.72 138.44,-65.22 136.94,-62.98 135.45,-60.75 130.65,-54.36 125.85,-47.97 121.67,-41.36 117.48,-34.75 114.29,-27.69 111.10,-20.63 109.33,-14.09 107.56,-7.55 106.83,-2.52 106.10,2.50 106.90,4.70 107.70,6.89 110.80,8.01 113.90,9.12 117.68,9.83 121.46,10.53 125.29,9.54 129.12,8.56 134.14,4.30 139.16,0.05 142.52,-5.36 145.87,-10.77 147.29,-16.40 148.72,-22.03 148.71,-27.47 148.70,-32.91 147.97,-39.25 147.24,-45.58 146.97,-49.74 146.71,-53.90 147.66,-58.96 148.62,-64.03 150.29,-67.21 151.96,-70.40 154.42,-72.34 156.87,-74.27 161.17,-74.59 165.46,-74.91 169.95,-74.74 174.43,-74.56 180.31,-74.45 186.19,-74.35 191.37,-74.77 196.55,-75.19 199.88,-75.45 203.22,-75.72 206.54,-76.02 209.85,-76.31 212.34,-75.97 214.82,-75.63 217.15,-75.28 219.47,-74.93 222.88,-73.29 226.28,-71.65 226.54,-68.22 226.80,-64.79 223.75,-61.56 220.70,-58.33 216.11,-55.18 211.52,-52.03 206.25,-47.91 200.98,-43.79 196.36,-38.68 191.74,-33.58 187.38,-25.52 183.02,-17.46 180.61,-10.90 178.19,-4.33 177.21,0.51 176.23,5.37 176.70,7.82 177.18,10.28 183.52,11.50 189.85,12.73 200.42,9.31 210.99,5.89 220.83,1.14 230.68,-3.60 239.42,-9.34 248.16,-15.07 257.02,-22.92 265.87,-30.77 272.67,-37.63 279.46,-44.48 285.37,-50.58 291.28,-56.68 296.62,-61.77 301.96,-66.86 305.97,-70.32 309.97,-73.78 312.04,-75.53 314.11,-77.28 314.47,-77.75 314.83,-78.23 315.40,-78.60 315.98,-78.97 316.62,-79.19 317.27,-79.42 317.95,-79.48 318.64,-79.53 319.31,-79.43 319.99,-79.32 320.62,-79.06 321.25,-78.80 321.80,-78.39 322.35,-77.98 322.79,-77.45 323.22,-76.93 323.52,-76.31 323.82,-75.70 323.96,-75.03 324.10,-74.36 324.08,-73.67 324.05,-72.99 323.87,-72.33 323.68,-71.67 323.34,-71.08 323.01,-70.48 322.54,-69.99 322.06,-69.49 318.19,-64.96 314.31,-60.43 310.00,-56.06 305.69,-51.69 301.05,-46.72 296.41,-41.75 291.97,-36.59 287.52,-31.43 282.42,-24.19 277.31,-16.95 273.29,-10.52 269.26,-4.10 266.43,1.14 263.60,6.38 262.37,10.05 261.13,13.71 262.66,15.28 264.18,16.84 267.53,17.39 270.88,17.94 275.54,18.03 280.20,18.12 285.05,16.88 289.90,15.64 294.81,13.07 299.73,10.49 303.00,8.18 306.27,5.87 309.17,-1.41 312.07,-8.70 313.35,-16.38 314.63,-24.06 315.55,-32.24 316.47,-40.43 318.62,-49.55 320.77,-58.67 322.71,-63.99 324.65,-69.31 326.32,-72.26 328.00,-75.21 332.75,-76.72 337.51,-78.22 339.79,-76.85 342.06,-75.49 343.80,-70.48 345.54,-65.47 346.06,-61.14 346.58,-56.81 346.82,-52.66 347.06,-48.51 346.95,-43.93 346.83,-39.35 345.90,-32.14 344.98,-24.94 344.48,-18.72 343.99,-12.50 344.25,-7.44 344.52,-2.38 345.92,0.64 347.32,3.66 348.99,5.20 350.66,6.74 354.49,7.71 358.32,8.67 362.97,6.80 367.61,4.93 374.71,-1.81 381.81,-8.56 388.33,-17.02 394.85,-25.47 400.17,-35.28 405.48,-45.08 409.90,-56.64 414.32,-68.20 420.68,-85.33 427.05,-102.47 431.49,-113.31 435.94,-124.15 441.65,-136.21 447.36,-148.27 450.78,-155.93 454.20,-163.59 456.13,-168.21 458.07,-172.83 459.16,-175.20 460.25,-177.58 460.59,-178.18 460.94,-178.79 461.42,-179.30 461.90,-179.81 462.49,-180.19 463.08,-180.56 463.74,-180.79 464.41,-181.02 465.10,-181.08 465.80,-181.14 466.49,-181.03 467.18,-180.92 467.83,-180.65 468.47,-180.38 469.04,-179.96 469.60,-179.55 470.04,-179.01 470.49,-178.47 470.80,-177.84 471.10,-177.21 471.24,-176.52 471.39,-175.84 471.36,-175.14 471.34,-174.44 471.15,-173.76 470.96,-173.09 470.19,-169.26 469.42,-165.43 467.58,-159.55 465.75,-153.66 462.34,-141.84 458.94,-130.01 455.33,-118.24 451.72,-106.47 447.58,-95.11 443.45,-83.74 439.19,-73.23 434.93,-62.72 431.39,-50.87 427.85,-39.03 426.32,-29.79 424.79,-20.55 424.82,-13.56 424.85,-6.57 426.50,-1.74 428.14,3.08 430.80,6.68 433.46,10.29 436.39,12.90 439.33,15.52 442.67,16.79 446.01,18.06 449.94,18.02 453.88,17.99 459.89,15.56 465.90,13.13 477.54,3.81 489.18,-5.49 497.14,-13.73 505.10,-21.96 511.82,-27.69 518.54,-33.43 518.87,-33.69 519.21,-33.96 519.61,-34.10 520.01,-34.25 520.43,-34.25 520.86,-34.26 521.26,-34.14 521.67,-34.01 522.01,-33.76 522.35,-33.51 522.60,-33.16 522.85,-32.82 522.97,-32.41 523.09,-32.00 523.08,-31.58 523.06,-31.16 522.92,-30.76 522.77,-30.36 522.50,-30.03 522.23,-29.70 521.87,-29.47 521.51,-29.24 521.10,-29.14 520.69,-29.04 520.26,-29.08 519.84,-29.12 519.45,-29.29 519.06,-29.46 518.75,-29.74 518.43,-30.03 518.22,-30.40 518.02,-30.77 517.94,-31.19 517.86,-31.61 517.92,-32.03 517.98,-32.45 518.17,-32.83 518.36,-33.21 518.66,-33.51 518.97,-33.80 519.35,-33.99 519.73,-34.18 520.15,-34.23 520.57,-34.29 520.99,-34.21 521.41,-34.12 521.77,-33.91 522.14,-33.70 522.43,-33.38 522.71,-33.07 522.87,-32.67 523.04,-32.28 523.07,-31.86 523.10,-31.44 523.00,-31.02 522.89,-30.61 522.66,-30.26 522.43,-29.90 522.43,-29.90 522.43,-29.90 517.39,-22.65 512.34,-15.40 504.38,-6.06 496.42,3.27 483.49,14.17 470.56,25.07 462.14,27.98 453.73,30.88 447.44,30.42 441.16,29.96 435.98,27.51 430.81,25.06 426.90,21.33 422.99,17.60 419.51,12.32 416.02,7.04 414.06,0.32 412.09,-6.40 412.13,-14.52 412.17,-22.65 413.88,-32.68 415.59,-42.72 419.38,-55.11 423.17,-67.49 427.36,-77.79 431.56,-88.08 435.60,-99.13 439.64,-110.18 443.25,-121.88 446.85,-133.57 450.47,-145.57 454.09,-157.56 456.17,-163.39 458.26,-169.22 459.42,-171.04 460.59,-172.85 460.42,-175.21 460.25,-177.57 460.59,-178.18 460.94,-178.79 461.42,-179.30 461.90,-179.81 462.49,-180.19 463.08,-180.56 463.74,-180.79 464.41,-181.01 465.10,-181.08 465.80,-181.14 466.49,-181.03 467.18,-180.92 467.83,-180.65 468.47,-180.38 469.04,-179.96 469.60,-179.55 470.04,-179.01 470.49,-178.47 470.79,-177.84 471.10,-177.21 471.24,-176.52 471.39,-175.84 471.36,-175.14 471.34,-174.44 471.15,-173.77 470.96,-173.09 469.89,-170.71 468.81,-168.33 466.82,-163.59 464.83,-158.84 461.37,-151.08 457.91,-143.33 452.42,-131.50 446.92,-119.67 442.58,-108.99 438.25,-98.31 431.86,-81.09 425.47,-63.88 420.68,-51.65 415.89,-39.42 410.09,-28.86 404.30,-18.29 397.27,-8.99 390.25,0.31 381.88,8.19 373.51,16.07 368.10,18.53 362.68,20.99 359.14,20.98 355.60,20.96 352.74,20.26 349.88,19.56 345.87,17.64 341.87,15.73 338.76,12.26 335.65,8.79 333.70,3.64 331.75,-1.50 331.47,-7.52 331.19,-13.54 331.75,-20.10 332.30,-26.67 333.27,-33.27 334.24,-39.87 334.48,-43.92 334.71,-47.98 334.61,-51.77 334.51,-55.57 334.62,-60.50 334.73,-65.43 332.91,-60.82 331.09,-56.21 329.07,-47.71 327.04,-39.21 326.06,-30.68 325.07,-22.14 323.33,-13.42 321.60,-4.69 317.41,4.60 313.22,13.89 309.18,17.11 305.15,20.33 299.02,23.82 292.90,27.31 286.42,28.88 279.94,30.45 274.06,30.22 268.19,29.98 262.86,28.56 257.53,27.14 253.60,23.60 249.66,20.06 249.37,14.85 249.07,9.64 250.71,4.98 252.34,0.32 255.39,-5.28 258.43,-10.89 262.65,-17.62 266.88,-24.35 272.39,-32.09 277.91,-39.82 282.62,-45.15 287.34,-50.49 292.25,-55.43 297.15,-60.37 301.52,-64.53 305.89,-68.68 309.05,-71.71 312.21,-74.74 313.52,-76.49 314.82,-78.23 315.40,-78.60 315.98,-78.97 316.62,-79.19 317.27,-79.42 317.95,-79.48 318.63,-79.53 319.31,-79.43 319.99,-79.32 320.62,-79.06 321.25,-78.80 321.80,-78.39 322.35,-77.98 322.79,-77.46 323.22,-76.93 323.52,-76.31 323.82,-75.70 323.96,-75.03 324.10,-74.36 324.08,-73.67 324.05,-72.99 323.87,-72.33 323.68,-71.67 323.34,-71.08 323.01,-70.48 322.54,-69.99 322.06,-69.49 321.31,-69.43 320.56,-69.38 318.56,-67.75 316.56,-66.13 312.74,-62.87 308.93,-59.61 303.78,-54.61 298.62,-49.62 292.74,-43.46 286.85,-37.30 279.96,-30.08 273.07,-22.87 263.79,-14.21 254.52,-5.55 245.21,0.70 235.90,6.96 225.26,12.32 214.62,17.68 201.59,21.47 188.56,25.25 180.99,23.74 173.42,22.22 169.48,18.16 165.53,14.11 164.59,8.62 163.64,3.14 164.88,-2.83 166.12,-8.81 168.93,-16.27 171.74,-23.73 177.04,-32.98 182.33,-42.23 187.83,-47.99 193.33,-53.74 198.98,-57.98 204.63,-62.21 211.02,-65.67 217.41,-69.12 217.66,-66.25 217.92,-63.38 214.06,-63.93 210.19,-64.48 207.16,-64.45 204.13,-64.42 200.83,-64.15 197.53,-63.88 191.79,-63.35 186.04,-62.81 179.98,-62.87 173.93,-62.93 169.38,-63.14 164.83,-63.35 162.31,-62.45 159.79,-61.55 158.97,-58.04 158.16,-54.53 158.42,-50.58 158.67,-46.64 159.17,-39.63 159.67,-32.62 159.33,-25.98 159.00,-19.34 157.01,-12.24 155.02,-5.13 150.63,1.62 146.24,8.38 139.21,14.06 132.18,19.73 125.81,20.99 119.44,22.24 113.88,20.98 108.31,19.72 102.92,16.22 97.52,12.72 95.60,7.07 93.69,1.43 94.49,-4.75 95.29,-10.94 97.41,-18.42 99.53,-25.90 103.15,-33.74 106.78,-41.57 111.30,-48.59 115.82,-55.60 120.96,-62.26 126.09,-68.92 129.00,-70.88 131.91,-72.84 132.15,-73.55 132.39,-74.26 132.80,-74.88 133.21,-75.51 133.75,-76.02 134.30,-76.54 134.95,-76.90 135.60,-77.27 136.32,-77.47 137.04,-77.67 137.79,-77.69 138.54,-77.71 139.27,-77.56 140.00,-77.40 140.67,-77.07 141.34,-76.74 141.91,-76.26 142.49,-75.78 142.93,-75.18 143.37,-74.58 143.66,-73.89 143.94,-73.20 144.06,-72.46 144.17,-71.72 144.10,-70.97 144.03,-70.23 143.86,-68.85 143.70,-67.47 142.90,-64.30 142.11,-61.12 140.32,-55.70 138.54,-50.27 134.73,-42.75 130.92,-35.24 124.23,-26.18 117.55,-17.13 108.19,-7.56 98.83,2.01 86.11,11.63 73.39,21.25 62.39,26.05 51.39,30.84 40.49,32.79 29.59,34.73 19.12,32.65 8.64,30.57 3.96,25.66 -0.71,20.75 -2.68,14.37 -4.64,7.99 -4.77,0.28 -4.89,-7.41 -3.68,-17.38 -2.48,-27.35 0.38,-39.78 3.25,-52.21 9.07,-66.95 14.90,-81.69 21.97,-92.53 29.04,-103.38 36.95,-113.26 44.86,-123.14 52.53,-132.33 60.20,-141.51 67.83,-150.21 75.46,-158.91 80.97,-163.63 86.49,-168.35 92.14,-170.98 97.79,-173.60 101.65,-172.06 105.50,-170.52 107.13,-164.97 108.75,-159.41 107.02,-152.43 105.29,-145.45 101.27,-136.25 97.25,-127.05 90.52,-115.25 83.79,-103.45 74.87,-90.25 65.95,-77.05 55.94,-63.41 45.92,-49.76 35.42,-35.83 24.92,-21.90 19.07,-14.23 13.21,-6.56 8.36,-1.82 3.50,2.90 3.11,3.28 2.71,3.65 2.23,3.92 1.75,4.20 1.23,4.35 0.70,4.50 0.15,4.51 -0.39,4.53 -0.93,4.42 -1.47,4.31 -1.96,4.07 -2.45,3.83 -2.88,3.48 -3.30,3.13 -3.63,2.69 -3.95,2.25 -4.17,1.74 -4.38,1.23 -4.46,0.69 -4.55,0.15 -4.50,-0.39 -4.45,-0.93 -4.27,-1.45 -4.10,-1.97 -3.80,-2.44 -3.50,-2.90 -3.50,-2.90 L -3.50,-2.90 Z"></path></g><g transform="translate(608.2333519674438 497.63029660246684) rotate(0 106.35140704295833 -24.452707163989544)" stroke="none"><path fill="#4f3866" d="M 0.42,-4.40 Q 0.42,-4.40 6.07,-4.42 11.72,-4.44 16.09,-5.97 20.46,-7.50 25.25,-10.36 30.04,-13.22 35.87,-18.13 41.71,-23.05 45.49,-26.62 49.27,-30.19 51.12,-31.95 52.97,-33.72 53.71,-34.28 54.45,-34.85 55.00,-35.26 55.55,-35.68 56.19,-35.94 56.82,-36.21 57.50,-36.32 58.18,-36.43 58.87,-36.37 59.56,-36.31 60.21,-36.09 60.86,-35.87 61.45,-35.50 62.03,-35.13 62.50,-34.63 62.98,-34.13 63.32,-33.53 63.66,-32.94 63.85,-32.27 64.04,-31.61 64.07,-30.92 64.09,-30.23 63.95,-29.56 63.81,-28.88 63.52,-28.26 63.22,-27.64 62.78,-27.11 62.34,-26.57 63.44,-28.56 64.54,-30.54 64.85,-27.98 65.15,-25.42 64.95,-22.09 64.75,-18.76 63.76,-14.05 62.76,-9.35 60.05,-1.65 57.34,6.03 54.66,12.53 51.99,19.04 49.82,24.32 47.65,29.61 46.28,33.83 44.92,38.06 44.17,41.26 43.42,44.46 42.99,47.38 42.56,50.30 42.56,51.95 42.57,53.60 42.43,54.31 42.28,55.03 41.97,55.69 41.66,56.36 41.20,56.92 40.74,57.49 40.16,57.94 39.58,58.38 38.91,58.67 38.24,58.96 37.52,59.08 36.79,59.20 36.06,59.15 35.33,59.09 34.64,58.86 33.94,58.64 33.32,58.25 32.70,57.86 32.19,57.34 31.68,56.81 31.32,56.18 30.95,55.55 30.74,54.85 30.53,54.14 30.50,53.41 30.47,52.68 33.59,49.65 36.71,46.61 38.93,44.87 41.15,43.12 46.45,39.11 51.76,35.09 62.44,26.92 73.13,18.76 83.65,10.06 94.17,1.36 103.92,-8.81 113.67,-18.99 122.56,-31.19 131.44,-43.39 140.36,-58.06 149.27,-72.73 154.46,-81.72 159.64,-90.72 162.02,-95.23 164.40,-99.75 165.48,-101.11 166.56,-102.47 166.99,-103.07 167.41,-103.66 167.97,-104.14 168.53,-104.62 169.19,-104.95 169.84,-105.28 170.56,-105.44 171.28,-105.60 172.01,-105.59 172.75,-105.57 173.46,-105.38 174.17,-105.20 174.81,-104.84 175.45,-104.49 175.99,-103.99 176.53,-103.49 176.94,-102.88 177.35,-102.27 177.59,-101.58 177.84,-100.89 177.92,-100.16 177.99,-99.43 177.89,-98.70 177.79,-97.97 177.52,-97.29 177.24,-96.61 176.00,-92.65 174.76,-88.70 173.16,-84.86 171.57,-81.02 169.70,-76.95 167.84,-72.87 165.39,-66.81 162.93,-60.76 159.00,-48.64 155.07,-36.53 151.74,-24.12 148.41,-11.72 146.16,-0.66 143.90,10.39 142.90,19.04 141.90,27.70 141.55,34.18 141.20,40.66 144.23,40.14 147.25,39.61 155.17,34.54 163.08,29.46 173.79,21.41 184.50,13.37 192.00,7.23 199.51,1.09 205.20,-3.48 210.90,-8.05 211.25,-8.29 211.60,-8.53 212.01,-8.64 212.42,-8.75 212.85,-8.73 213.27,-8.70 213.67,-8.54 214.06,-8.38 214.38,-8.11 214.71,-7.83 214.92,-7.47 215.14,-7.10 215.23,-6.69 215.32,-6.27 215.27,-5.85 215.23,-5.43 215.05,-5.04 214.87,-4.66 214.57,-4.35 214.28,-4.04 213.90,-3.84 213.53,-3.65 213.11,-3.58 212.69,-3.51 212.27,-3.58 211.85,-3.65 211.47,-3.85 211.10,-4.05 210.81,-4.36 210.52,-4.67 210.34,-5.06 210.16,-5.45 210.12,-5.87 210.08,-6.29 210.17,-6.71 210.26,-7.12 210.48,-7.48 210.70,-7.85 211.03,-8.12 211.35,-8.40 211.75,-8.55 212.14,-8.71 212.57,-8.73 212.99,-8.75 213.40,-8.63 213.81,-8.52 214.16,-8.28 214.51,-8.04 214.77,-7.70 215.02,-7.36 215.16,-6.96 215.29,-6.55 215.29,-6.13 215.29,-5.70 215.15,-5.30 215.01,-4.90 214.75,-4.56 214.50,-4.22 214.50,-4.23 214.50,-4.23 209.58,1.17 204.66,6.57 197.80,13.93 190.94,21.29 180.27,30.62 169.59,39.95 159.49,46.04 149.39,52.13 143.13,52.26 136.87,52.39 132.74,46.66 128.62,40.93 128.89,33.57 129.16,26.22 130.24,17.02 131.32,7.83 133.65,-3.61 135.98,-15.06 139.40,-27.81 142.82,-40.56 147.01,-53.10 151.20,-65.65 153.89,-71.91 156.57,-78.17 158.41,-81.98 160.26,-85.79 161.91,-89.67 163.55,-93.56 164.87,-95.57 166.18,-97.58 166.37,-100.03 166.56,-102.47 166.98,-103.07 167.41,-103.66 167.97,-104.14 168.53,-104.62 169.19,-104.95 169.84,-105.28 170.56,-105.44 171.28,-105.60 172.01,-105.59 172.75,-105.57 173.46,-105.38 174.16,-105.20 174.81,-104.84 175.45,-104.49 175.99,-103.99 176.53,-103.49 176.94,-102.88 177.35,-102.27 177.59,-101.58 177.84,-100.89 177.92,-100.16 177.99,-99.43 177.89,-98.70 177.79,-97.97 177.52,-97.29 177.24,-96.61 176.21,-95.21 175.18,-93.81 172.59,-89.28 170.01,-84.74 164.75,-75.64 159.50,-66.53 150.37,-51.40 141.23,-36.27 131.87,-23.42 122.51,-10.57 112.29,0.15 102.07,10.88 91.38,19.75 80.69,28.61 70.01,36.85 59.33,45.08 53.81,49.27 48.28,53.47 44.26,56.03 40.24,58.59 41.41,56.09 42.57,53.59 42.43,54.31 42.28,55.03 41.97,55.69 41.66,56.36 41.21,56.92 40.75,57.49 40.16,57.94 39.58,58.38 38.91,58.67 38.24,58.96 37.52,59.08 36.79,59.20 36.06,59.15 35.34,59.09 34.64,58.86 33.94,58.64 33.32,58.25 32.70,57.86 32.19,57.34 31.68,56.81 31.32,56.18 30.95,55.55 30.74,54.85 30.53,54.14 30.50,53.41 30.47,52.68 30.56,51.72 30.65,50.77 30.91,48.52 31.18,46.28 31.56,44.01 31.95,41.74 32.83,38.06 33.71,34.38 35.25,29.76 36.80,25.14 38.98,19.85 41.17,14.55 43.77,8.31 46.37,2.07 48.95,-4.87 51.53,-11.83 52.42,-15.69 53.30,-19.56 53.50,-23.18 53.69,-26.80 54.07,-30.83 54.45,-34.85 55.00,-35.26 55.55,-35.68 56.19,-35.94 56.82,-36.21 57.50,-36.32 58.18,-36.43 58.87,-36.37 59.56,-36.31 60.21,-36.09 60.86,-35.87 61.45,-35.50 62.03,-35.13 62.50,-34.63 62.98,-34.13 63.32,-33.53 63.66,-32.94 63.85,-32.27 64.04,-31.61 64.07,-30.92 64.09,-30.23 63.95,-29.56 63.81,-28.88 63.52,-28.26 63.22,-27.64 62.78,-27.11 62.34,-26.57 61.38,-26.19 60.41,-25.80 58.57,-24.04 56.73,-22.28 52.75,-18.52 48.77,-14.76 42.24,-9.14 35.71,-3.52 29.73,-0.12 23.74,3.26 17.36,4.93 10.97,6.60 5.27,5.50 -0.42,4.40 -0.94,4.28 -1.46,4.17 -1.93,3.93 -2.41,3.70 -2.82,3.35 -3.23,3.01 -3.54,2.58 -3.86,2.15 -4.06,1.66 -4.26,1.16 -4.34,0.63 -4.41,0.11 -4.36,-0.41 -4.31,-0.94 -4.14,-1.45 -3.96,-1.95 -3.67,-2.40 -3.38,-2.84 -2.99,-3.20 -2.60,-3.57 -2.13,-3.83 -1.67,-4.09 -1.15,-4.23 -0.64,-4.37 -0.11,-4.38 0.42,-4.40 0.42,-4.40 L 0.42,-4.40 Z"></path></g><g transform="translate(753.2444933424817 472.58769317479255) rotate(0 43.02367493970485 -17.60000713731415)" stroke="none"><path fill="#4f3866" d="M -2.51,-3.70 Q -2.51,-3.70 3.84,-8.95 10.20,-14.21 17.42,-18.69 24.63,-23.17 32.48,-27.23 40.32,-31.28 48.25,-34.05 56.18,-36.82 63.46,-37.58 70.73,-38.34 75.08,-38.38 79.42,-38.43 82.58,-38.11 85.74,-37.80 86.16,-37.78 86.59,-37.76 86.98,-37.61 87.38,-37.46 87.71,-37.18 88.03,-36.91 88.25,-36.55 88.48,-36.19 88.57,-35.77 88.66,-35.36 88.62,-34.93 88.58,-34.51 88.40,-34.12 88.23,-33.74 87.94,-33.43 87.65,-33.12 87.27,-32.91 86.90,-32.71 86.48,-32.64 86.06,-32.57 85.64,-32.63 85.22,-32.70 84.84,-32.90 84.47,-33.09 84.17,-33.40 83.88,-33.71 83.70,-34.09 83.52,-34.47 83.47,-34.90 83.42,-35.32 83.51,-35.73 83.60,-36.15 83.81,-36.52 84.03,-36.88 84.35,-37.16 84.67,-37.44 85.07,-37.60 85.46,-37.76 85.88,-37.78 86.31,-37.81 86.72,-37.70 87.13,-37.59 87.48,-37.35 87.84,-37.11 88.09,-36.78 88.35,-36.44 88.49,-36.04 88.63,-35.64 88.63,-35.21 88.64,-34.79 88.50,-34.38 88.37,-33.98 88.12,-33.64 87.86,-33.30 87.51,-33.06 87.16,-32.82 86.75,-32.70 86.34,-32.59 86.35,-32.59 86.35,-32.59 83.34,-31.56 80.34,-30.53 76.36,-29.61 72.37,-28.68 66.25,-27.16 60.13,-25.64 52.99,-23.05 45.85,-20.46 38.41,-16.69 30.98,-12.92 23.97,-8.59 16.97,-4.26 9.74,-0.28 2.51,3.70 2.03,3.94 1.55,4.19 1.03,4.32 0.50,4.44 -0.03,4.44 -0.57,4.43 -1.09,4.30 -1.61,4.17 -2.09,3.91 -2.56,3.66 -2.96,3.30 -3.37,2.94 -3.67,2.49 -3.97,2.05 -4.16,1.54 -4.35,1.03 -4.41,0.50 -4.47,-0.03 -4.40,-0.56 -4.33,-1.10 -4.14,-1.60 -3.94,-2.10 -3.63,-2.54 -3.32,-2.99 -2.92,-3.34 -2.51,-3.70 -2.51,-3.70 L -2.51,-3.70 Z"></path></g><g transform="translate(678.4439247823785 419.43244226099523) rotate(0 0.23251385575895256 5.905421355064846)" stroke="none"><path d="M0.67 -1.04 C-0.88 0.98, -8.95 7.56, -10.56 10.69 C-12.17 13.81, -10.13 16.83, -9.01 17.7 C-7.89 18.57, -6.09 17.16, -3.84 15.9 C-1.59 14.64, 2.27 12.9, 4.49 10.17 C6.72 7.43, 8.35 2.24, 9.49 -0.49 C10.63 -3.22, 11.95 -5.62, 11.35 -6.23 C10.74 -6.83, 7.55 -5.15, 5.86 -4.14 C4.16 -3.12, 2.46 -1.89, 1.18 -0.12 C-0.1 1.66, -1.86 6.29, -1.84 6.52 C-1.82 6.74, 0.95 2.49, 1.31 1.25" stroke="none" stroke-width="0" fill="#f8f9fa" fill-rule="evenodd"></path><path fill="#4f3866" d="M 3.37,2.31 Q 3.37,2.31 1.11,6.55 -1.14,10.79 -2.04,12.78 -2.94,14.77 -4.25,12.91 -5.56,11.05 -3.50,9.29 -1.43,7.53 -0.08,5.29 1.26,3.05 2.58,-0.16 3.90,-3.38 6.01,-1.36 8.11,0.66 6.79,3.38 5.46,6.10 4.67,7.22 3.88,8.34 3.48,8.85 3.07,9.36 2.55,9.76 2.03,10.16 1.43,10.42 0.83,10.68 0.19,10.79 -0.44,10.90 -1.10,10.86 -1.75,10.81 -2.37,10.61 -2.99,10.41 -3.55,10.06 -4.10,9.72 -4.56,9.25 -5.02,8.79 -5.35,8.22 -5.68,7.66 -5.87,7.03 -6.06,6.41 -6.09,5.76 -6.12,5.10 -6.00,4.46 -5.87,3.82 -5.60,3.23 -5.33,2.63 -3.96,1.14 -2.60,-0.34 -2.48,-0.74 -2.35,-1.15 -2.11,-1.50 -1.86,-1.84 -1.52,-2.09 -1.17,-2.34 -0.77,-2.47 -0.36,-2.60 0.05,-2.59 0.48,-2.58 0.88,-2.43 1.28,-2.29 1.61,-2.02 1.94,-1.76 2.17,-1.40 2.40,-1.04 2.51,-0.63 2.61,-0.22 2.58,0.19 2.55,0.62 2.38,1.01 2.21,1.40 1.93,1.72 1.65,2.03 1.28,2.25 0.91,2.46 0.50,2.54 0.08,2.62 -0.33,2.56 -0.75,2.51 -1.14,2.32 -1.52,2.14 -1.82,1.84 -2.12,1.54 -2.31,1.16 -2.50,0.78 -2.56,0.36 -2.62,-0.05 -2.54,-0.47 -2.46,-0.89 -2.26,-1.26 -2.05,-1.63 -1.74,-1.92 -1.42,-2.20 -1.03,-2.37 -0.64,-2.54 -0.22,-2.58 0.20,-2.61 0.61,-2.51 1.02,-2.41 1.38,-2.19 1.74,-1.96 2.01,-1.63 2.28,-1.30 2.42,-0.90 2.57,-0.50 2.59,-0.08 2.60,0.34 2.60,0.34 2.60,0.34 3.24,4.34 3.88,8.34 3.48,8.85 3.07,9.36 2.55,9.76 2.03,10.16 1.43,10.42 0.83,10.68 0.19,10.79 -0.44,10.90 -1.10,10.86 -1.75,10.81 -2.37,10.61 -2.99,10.41 -3.55,10.06 -4.10,9.72 -4.56,9.25 -5.02,8.79 -5.35,8.22 -5.68,7.66 -5.87,7.04 -6.06,6.41 -6.09,5.76 -6.12,5.10 -6.00,4.46 -5.87,3.82 -5.60,3.23 -5.33,2.63 -4.92,1.28 -4.51,-0.07 -2.65,-2.96 -0.78,-5.86 1.06,-7.46 2.91,-9.07 5.35,-9.99 7.80,-10.91 10.10,-10.09 12.41,-9.28 13.64,-5.50 14.87,-1.73 13.89,0.98 12.92,3.69 12.01,5.77 11.10,7.85 9.40,10.82 7.70,13.79 5.22,16.06 2.74,18.32 0.98,19.62 -0.77,20.92 -4.84,21.58 -8.91,22.25 -11.39,19.52 -13.87,16.80 -13.17,13.32 -12.46,9.84 -11.07,7.40 -9.67,4.95 -6.52,1.31 -3.37,-2.31 -3.04,-2.68 -2.72,-3.05 -2.31,-3.33 -1.91,-3.62 -1.45,-3.79 -0.99,-3.97 -0.50,-4.03 -0.01,-4.09 0.47,-4.03 0.96,-3.97 1.43,-3.80 1.89,-3.63 2.30,-3.35 2.70,-3.07 3.03,-2.70 3.36,-2.33 3.59,-1.89 3.82,-1.46 3.94,-0.98 4.06,-0.50 4.06,-0.01 4.06,0.48 3.94,0.96 3.83,1.44 3.60,1.87 3.37,2.31 3.37,2.31 L 3.37,2.31 Z"></path></g></svg>
