<?xml version="1.0" standalone="no"?>
<!DOCTYPE svg PUBLIC "-//W3C//DTD SVG 1.1//EN" "http://www.w3.org/Graphics/SVG/1.1/DTD/svg11.dtd">
<svg version="1.1" xmlns="http://www.w3.org/2000/svg" viewBox="0 0 917.2255305150659 934.6132934383986" width="917.2255305150659" height="934.6132934383986"><!-- svg-source:excalidraw --><metadata></metadata><defs><style class="style-fonts">
      </style></defs><g stroke-linecap="round" transform="translate(10 10) rotate(0 448.61276525753294 457.3066467191993)"></g><g transform="translate(194.85656566920284 383.79024928223225) rotate(0 146.021484375 93.443359375)" stroke="none"><path fill="#4f3866" d="M 4.19,1.38 Q 4.19,1.38 2.58,8.09 0.97,14.80 -3.25,25.52 -7.48,36.23 -13.53,50.22 -19.58,64.21 -27.38,81.61 -35.17,99.00 -40.76,111.27 -46.34,123.54 -50.83,131.78 -55.32,140.01 -58.67,144.70 -62.02,149.39 -63.62,151.15 -65.23,152.90 -65.71,153.42 -66.20,153.94 -66.80,154.33 -67.40,154.71 -68.07,154.95 -68.74,155.18 -69.45,155.25 -70.16,155.31 -70.87,155.20 -71.57,155.10 -72.23,154.82 -72.89,154.55 -73.46,154.13 -74.04,153.71 -74.49,153.16 -74.95,152.62 -75.26,151.97 -75.58,151.33 -75.73,150.64 -75.88,149.94 -75.86,149.23 -75.83,148.52 -75.64,147.83 -75.45,147.14 -75.10,146.52 -74.75,145.90 -74.84,140.52 -74.92,135.15 -71.84,127.68 -68.77,120.21 -63.63,111.30 -58.49,102.39 -47.90,89.61 -37.31,76.82 -25.89,66.71 -14.46,56.60 -3.06,49.57 8.32,42.54 18.26,38.80 28.20,35.06 37.14,34.94 46.07,34.83 51.34,38.31 56.62,41.80 58.91,47.75 61.20,53.70 59.43,60.77 57.66,67.85 52.45,74.77 47.25,81.68 36.80,89.08 26.36,96.47 16.31,100.96 6.27,105.45 -2.83,107.49 -11.93,109.53 -18.81,110.01 -25.68,110.49 -30.47,109.26 -35.25,108.03 -36.65,106.91 -38.05,105.80 -38.71,105.51 -39.37,105.22 -39.95,104.78 -40.52,104.35 -40.97,103.78 -41.42,103.22 -41.72,102.57 -42.02,101.91 -42.16,101.21 -42.30,100.50 -42.26,99.78 -42.23,99.06 -42.02,98.37 -41.82,97.68 -41.45,97.06 -41.08,96.44 -40.58,95.92 -40.08,95.41 -39.46,95.03 -38.85,94.65 -38.17,94.42 -37.48,94.20 -36.76,94.15 -36.04,94.10 -35.33,94.22 -34.62,94.34 -36.79,94.31 -38.97,94.27 -35.75,93.06 -32.54,91.84 -29.12,91.88 -25.70,91.92 -23.63,93.17 -21.56,94.41 -20.25,96.45 -18.94,98.49 -17.69,100.58 -16.43,102.67 -12.82,106.00 -9.20,109.32 -4.32,112.44 0.55,115.56 6.37,118.39 12.20,121.22 18.50,123.77 24.80,126.32 31.58,128.06 38.37,129.80 48.17,130.19 57.97,130.59 66.54,128.58 75.11,126.57 83.25,122.72 91.40,118.87 98.08,114.00 104.77,109.13 109.23,103.16 113.70,97.20 115.36,92.81 117.02,88.42 116.47,85.80 115.93,83.18 111.11,82.32 106.29,81.47 101.71,83.46 97.12,85.45 92.33,88.64 87.55,91.83 83.57,95.51 79.59,99.19 76.55,103.15 73.52,107.11 71.86,112.85 70.21,118.59 70.07,123.73 69.93,128.87 71.63,132.42 73.33,135.97 76.65,138.01 79.97,140.06 85.33,141.00 90.70,141.93 99.73,141.00 108.75,140.07 116.42,137.65 124.08,135.23 130.73,131.81 137.39,128.39 143.47,124.29 149.55,120.19 156.38,114.56 163.20,108.93 168.23,104.27 173.26,99.62 176.29,96.10 179.33,92.58 177.40,90.28 175.47,87.98 172.59,87.56 169.71,87.13 166.86,87.01 164.00,86.88 161.32,87.90 158.63,88.93 154.63,91.93 150.63,94.94 147.74,98.56 144.84,102.19 143.21,106.56 141.59,110.93 140.86,116.09 140.14,121.24 140.64,126.11 141.14,130.98 143.86,135.10 146.58,139.21 149.95,141.27 153.31,143.33 157.93,144.14 162.54,144.96 168.56,144.41 174.57,143.85 184.29,139.93 194.00,136.01 203.46,130.93 212.91,125.85 221.74,120.22 230.56,114.59 238.75,109.15 246.94,103.70 253.52,98.84 260.11,93.99 264.37,89.62 268.64,85.25 270.34,82.76 272.05,80.26 272.87,78.88 273.70,77.50 274.14,77.02 274.58,76.54 275.13,76.18 275.67,75.82 276.29,75.60 276.90,75.38 277.55,75.32 278.20,75.25 278.84,75.35 279.49,75.44 280.10,75.68 280.70,75.93 281.23,76.31 281.76,76.69 282.18,77.19 282.60,77.68 282.90,78.27 283.19,78.85 283.33,79.49 283.47,80.12 283.46,80.78 283.45,81.43 283.28,82.06 283.11,82.69 282.79,83.26 282.48,83.83 280.93,85.82 279.38,87.80 277.71,90.98 276.04,94.15 274.26,98.32 272.48,102.50 270.40,108.08 268.32,113.66 265.15,121.27 261.98,128.88 255.21,140.62 248.44,152.37 242.74,161.20 237.04,170.04 233.60,175.56 230.16,181.08 228.51,183.68 226.85,186.29 226.39,186.87 225.92,187.45 225.33,187.89 224.74,188.34 224.06,188.64 223.38,188.94 222.64,189.06 221.91,189.18 221.17,189.13 220.43,189.07 219.72,188.84 219.02,188.61 218.39,188.22 217.76,187.82 217.24,187.29 216.72,186.76 216.35,186.12 215.97,185.48 215.76,184.76 215.55,184.05 215.51,183.31 215.48,182.57 215.62,181.84 215.77,181.11 216.08,180.44 216.40,179.76 217.77,176.69 219.14,173.62 221.79,168.36 224.44,163.10 227.79,155.49 231.15,147.89 235.45,137.85 239.76,127.80 248.59,113.66 257.42,99.51 267.66,88.32 277.91,77.13 288.98,68.92 300.05,60.71 310.94,55.59 321.83,50.48 332.97,48.56 344.10,46.63 351.47,49.14 358.84,51.65 362.28,57.79 365.72,63.94 364.31,71.81 362.89,79.68 355.16,89.29 347.42,98.90 338.00,106.00 328.57,113.11 317.84,118.09 307.10,123.08 296.07,126.05 285.04,129.03 275.59,130.93 266.14,132.83 258.77,133.96 251.39,135.10 245.86,136.21 240.33,137.32 239.91,137.37 239.48,137.42 239.07,137.34 238.65,137.25 238.28,137.04 237.92,136.83 237.64,136.51 237.36,136.19 237.19,135.80 237.03,135.40 237.00,134.98 236.97,134.56 237.08,134.15 237.18,133.73 237.42,133.38 237.65,133.02 237.98,132.76 238.32,132.50 238.72,132.36 239.12,132.21 239.54,132.21 239.97,132.20 240.37,132.33 240.78,132.46 241.12,132.71 241.46,132.96 241.71,133.31 241.95,133.66 242.07,134.07 242.19,134.48 242.17,134.90 242.16,135.32 242.01,135.72 241.86,136.12 241.59,136.45 241.32,136.78 240.96,137.00 240.59,137.22 240.18,137.32 239.77,137.42 239.34,137.38 238.92,137.34 238.53,137.17 238.14,137.00 237.83,136.71 237.52,136.42 237.31,136.05 237.11,135.68 237.03,135.26 236.96,134.84 237.02,134.42 237.08,134.00 237.28,133.62 237.47,133.24 237.77,132.95 238.08,132.65 238.46,132.46 238.84,132.28 238.84,132.28 238.84,132.28 244.09,130.22 249.34,128.15 256.55,124.99 263.76,121.83 272.86,119.71 281.96,117.58 292.05,114.87 302.13,112.15 311.80,107.80 321.46,103.44 329.89,97.27 338.33,91.10 345.02,83.68 351.71,76.26 353.54,71.62 355.37,66.98 354.34,63.69 353.30,60.39 349.29,58.95 345.28,57.51 335.84,59.07 326.41,60.62 316.49,65.14 306.57,69.65 296.29,77.14 286.00,84.63 276.40,95.01 266.80,105.38 258.50,118.80 250.21,132.21 246.05,142.35 241.90,152.49 238.58,160.49 235.26,168.49 231.11,175.25 226.96,182.01 226.91,184.15 226.85,186.29 226.39,186.87 225.92,187.44 225.33,187.89 224.74,188.34 224.06,188.64 223.38,188.93 222.64,189.06 221.91,189.18 221.17,189.13 220.43,189.07 219.72,188.84 219.02,188.61 218.39,188.22 217.76,187.82 217.24,187.29 216.72,186.76 216.35,186.12 215.97,185.48 215.76,184.76 215.55,184.05 215.51,183.31 215.48,182.57 215.62,181.84 215.77,181.11 216.08,180.44 216.40,179.77 218.05,177.16 219.70,174.55 223.19,168.96 226.68,163.36 232.21,154.76 237.75,146.16 244.18,135.14 250.61,124.11 253.72,116.72 256.83,109.33 259.10,103.38 261.37,97.44 263.62,92.75 265.87,88.07 269.78,82.79 273.70,77.50 274.14,77.02 274.58,76.54 275.13,76.18 275.67,75.82 276.29,75.60 276.90,75.38 277.55,75.32 278.20,75.25 278.84,75.35 279.49,75.44 280.10,75.68 280.70,75.93 281.23,76.31 281.76,76.69 282.18,77.19 282.60,77.68 282.89,78.27 283.19,78.85 283.33,79.49 283.47,80.12 283.46,80.78 283.45,81.43 283.28,82.06 283.11,82.69 282.79,83.26 282.48,83.83 281.60,85.17 280.72,86.52 278.43,89.57 276.14,92.62 271.28,97.52 266.42,102.42 259.70,107.49 252.98,112.56 244.79,118.29 236.61,124.02 227.46,129.91 218.31,135.79 208.29,141.28 198.27,146.76 186.94,151.16 175.61,155.57 167.87,156.05 160.13,156.53 153.50,154.85 146.87,153.17 141.81,149.37 136.75,145.56 133.16,139.05 129.57,132.54 129.02,126.05 128.48,119.56 129.52,113.07 130.56,106.57 133.09,100.64 135.61,94.70 139.67,90.02 143.72,85.34 149.32,81.56 154.92,77.78 159.60,76.47 164.29,75.15 168.08,75.33 171.87,75.50 175.89,76.37 179.92,77.23 184.55,79.96 189.19,82.70 190.37,87.05 191.55,91.40 189.67,95.60 187.79,99.80 184.31,103.79 180.82,107.77 175.58,112.63 170.33,117.50 163.13,123.54 155.93,129.59 149.28,134.11 142.64,138.64 135.11,142.46 127.58,146.29 118.78,149.03 109.98,151.77 99.12,152.84 88.27,153.90 80.66,152.00 73.05,150.09 67.80,145.75 62.56,141.41 60.15,135.14 57.75,128.87 58.09,121.92 58.43,114.98 61.00,107.35 63.57,99.73 67.39,94.87 71.20,90.01 76.01,85.69 80.83,81.37 86.88,77.62 92.94,73.87 100.05,71.72 107.16,69.57 114.00,71.05 120.84,72.52 124.00,76.79 127.16,81.06 127.45,86.61 127.73,92.16 125.14,98.01 122.56,103.85 117.03,110.96 111.50,118.07 103.96,123.66 96.42,129.24 87.15,133.76 77.88,138.28 67.73,140.60 57.59,142.91 46.43,142.47 35.27,142.02 27.66,140.03 20.06,138.04 13.34,135.31 6.62,132.58 0.13,129.36 -6.35,126.14 -12.16,122.26 -17.97,118.38 -22.60,113.66 -27.23,108.94 -29.20,105.81 -31.18,102.68 -34.61,104.24 -38.05,105.80 -38.71,105.51 -39.37,105.22 -39.94,104.78 -40.52,104.35 -40.97,103.78 -41.42,103.22 -41.72,102.57 -42.02,101.91 -42.16,101.21 -42.30,100.50 -42.26,99.78 -42.23,99.06 -42.02,98.37 -41.82,97.68 -41.45,97.06 -41.08,96.44 -40.58,95.92 -40.08,95.41 -39.46,95.03 -38.85,94.65 -38.17,94.43 -37.48,94.20 -36.76,94.15 -36.04,94.10 -35.33,94.22 -34.62,94.34 -33.09,95.54 -31.55,96.73 -28.87,97.73 -26.19,98.74 -20.28,98.39 -14.38,98.04 -6.36,96.40 1.64,94.76 10.75,90.87 19.85,86.98 29.14,80.75 38.42,74.52 42.74,69.38 47.05,64.24 48.81,60.07 50.57,55.89 49.92,52.75 49.26,49.62 47.02,47.38 44.79,45.15 38.30,45.22 31.82,45.29 22.95,48.64 14.08,51.99 3.46,58.46 -7.16,64.93 -17.96,74.41 -28.76,83.88 -38.66,96.02 -48.55,108.15 -53.31,116.41 -58.07,124.67 -60.81,131.22 -63.56,137.76 -64.73,141.06 -65.90,144.36 -65.56,148.63 -65.23,152.90 -65.71,153.42 -66.20,153.94 -66.80,154.33 -67.40,154.71 -68.07,154.95 -68.74,155.18 -69.45,155.25 -70.16,155.31 -70.87,155.20 -71.57,155.10 -72.23,154.83 -72.89,154.55 -73.46,154.13 -74.04,153.71 -74.49,153.16 -74.95,152.62 -75.26,151.98 -75.58,151.33 -75.73,150.64 -75.88,149.94 -75.86,149.23 -75.83,148.52 -75.64,147.83 -75.45,147.14 -75.10,146.52 -74.75,145.90 -73.05,144.21 -71.34,142.52 -68.32,138.53 -65.29,134.53 -60.97,126.69 -56.64,118.85 -51.07,106.61 -45.50,94.38 -37.75,77.03 -30.01,59.69 -23.98,45.87 -17.96,32.05 -13.78,21.68 -9.59,11.31 -6.89,4.96 -4.19,-1.38 -3.97,-1.86 -3.74,-2.34 -3.40,-2.76 -3.07,-3.17 -2.64,-3.49 -2.22,-3.82 -1.73,-4.03 -1.24,-4.24 -0.71,-4.32 -0.19,-4.41 0.33,-4.37 0.86,-4.33 1.37,-4.16 1.88,-4.00 2.33,-3.71 2.78,-3.43 3.15,-3.05 3.52,-2.66 3.79,-2.20 4.06,-1.74 4.21,-1.23 4.36,-0.72 4.38,-0.19 4.40,0.34 4.30,0.86 4.19,1.38 4.19,1.38 L 4.19,1.38 Z"></path></g></svg>
