<?xml version="1.0" standalone="no"?>
<!DOCTYPE svg PUBLIC "-//W3C//DTD SVG 1.1//EN" "http://www.w3.org/Graphics/SVG/1.1/DTD/svg11.dtd">
<svg version="1.1" xmlns="http://www.w3.org/2000/svg" viewBox="0 0 918.4649714351683 934.6132934383986" width="918.4649714351683" height="934.6132934383986"><!-- svg-source:excalidraw --><metadata></metadata><defs><style class="style-fonts">
      </style></defs><g transform="translate(156.3719903352354 376.588834814409) rotate(0 143.7009183641099 107.96397238230156)" stroke="none"><path fill="#4f3866" d="M -17.78,4.57 Q -17.78,4.57 -22.66,3.09 -27.53,1.60 -38.06,4.33 -48.60,7.05 -59.41,12.98 -70.22,18.92 -80.89,27.70 -91.56,36.48 -101.48,46.55 -111.39,56.63 -118.96,66.24 -126.54,75.85 -130.75,85.10 -134.97,94.35 -134.48,98.58 -133.98,102.81 -127.27,105.08 -120.56,107.35 -108.39,108.55 -96.22,109.74 -77.57,110.31 -58.93,110.88 -46.50,111.80 -34.07,112.73 -26.83,115.02 -19.58,117.32 -15.60,121.71 -11.61,126.11 -11.98,131.95 -12.35,137.79 -20.19,146.55 -28.03,155.31 -37.92,163.38 -47.80,171.44 -58.82,179.57 -69.84,187.71 -80.34,195.02 -90.84,202.34 -101.47,208.36 -112.10,214.38 -118.86,217.55 -125.61,220.72 -129.07,222.06 -132.52,223.40 -133.19,223.95 -133.86,224.49 -134.47,224.65 -135.07,224.80 -135.70,224.81 -136.33,224.81 -136.94,224.67 -137.55,224.52 -138.11,224.24 -138.67,223.95 -139.14,223.54 -139.62,223.13 -139.98,222.61 -140.34,222.10 -140.57,221.52 -140.79,220.93 -140.88,220.31 -140.96,219.69 -140.89,219.06 -140.82,218.44 -140.60,217.85 -140.38,217.26 -140.03,216.74 -139.68,216.22 -139.21,215.80 -138.75,215.38 -138.19,215.08 -137.64,214.79 -131.74,212.14 -125.85,209.50 -117.05,205.12 -108.25,200.74 -97.02,195.56 -85.78,190.38 -73.54,185.36 -61.30,180.34 -49.68,175.63 -38.06,170.91 -25.10,165.00 -12.14,159.09 -2.04,153.83 8.05,148.57 16.41,143.26 24.77,137.94 32.33,132.63 39.88,127.31 46.73,121.75 53.58,116.20 57.00,112.81 60.42,109.43 61.56,107.49 62.70,105.55 58.85,105.61 55.00,105.67 49.69,106.46 44.38,107.26 38.67,109.67 32.95,112.08 27.27,115.81 21.60,119.54 16.24,125.30 10.88,131.07 8.48,136.34 6.09,141.61 5.51,146.61 4.93,151.62 7.53,155.92 10.13,160.23 15.63,163.65 21.12,167.07 32.54,168.81 43.95,170.55 54.47,169.81 64.99,169.07 74.57,166.18 84.14,163.30 93.76,158.71 103.39,154.13 115.01,145.85 126.64,137.57 135.21,130.24 143.78,122.90 149.97,117.29 156.17,111.67 159.79,108.16 163.41,104.65 165.16,102.92 166.91,101.20 167.60,100.73 168.29,100.27 168.83,99.86 169.36,99.45 169.98,99.18 170.59,98.91 171.25,98.80 171.92,98.69 172.59,98.74 173.26,98.78 173.90,98.99 174.53,99.20 175.11,99.55 175.68,99.91 176.15,100.39 176.61,100.87 176.96,101.45 177.30,102.03 177.49,102.67 177.68,103.32 177.71,103.99 177.75,104.66 177.62,105.32 177.49,105.98 177.21,106.59 176.92,107.19 176.50,107.72 176.08,108.24 176.61,113.44 177.14,118.64 175.96,125.17 174.78,131.71 172.82,140.61 170.85,149.51 168.74,156.69 166.64,163.87 164.67,169.01 162.70,174.15 161.72,176.63 160.74,179.10 160.41,179.73 160.07,180.36 159.60,180.88 159.12,181.41 158.53,181.81 157.94,182.21 157.28,182.46 156.61,182.70 155.91,182.78 155.20,182.86 154.49,182.77 153.79,182.68 153.13,182.42 152.47,182.16 151.88,181.75 151.30,181.34 150.84,180.81 150.37,180.27 150.05,179.64 149.72,179.01 149.56,178.32 149.39,177.62 149.40,176.91 149.41,176.20 149.58,175.52 149.76,174.83 154.44,168.51 159.13,162.19 165.98,154.21 172.83,146.23 180.85,137.62 188.87,129.02 196.17,121.84 203.47,114.67 209.31,109.41 215.14,104.14 221.32,101.51 227.50,98.88 229.97,100.74 232.44,102.60 233.89,111.01 235.34,119.41 235.87,126.63 236.40,133.84 237.32,139.67 238.25,145.50 239.88,149.22 241.52,152.95 247.14,155.65 252.77,158.35 260.73,159.67 268.70,160.98 278.09,159.40 287.48,157.81 297.35,153.84 307.22,149.87 316.03,144.34 324.83,138.82 332.06,130.83 339.29,122.85 343.01,116.52 346.72,110.20 348.12,105.59 349.53,100.99 350.05,97.73 350.57,94.48 352.81,94.21 355.04,93.94 349.16,98.89 343.29,103.85 336.78,109.92 330.27,115.99 322.07,125.33 313.87,134.68 308.07,143.07 302.28,151.47 298.94,158.74 295.61,166.02 294.26,171.28 292.90,176.55 293.60,179.20 294.30,181.85 296.50,182.47 298.71,183.09 302.38,181.76 306.05,180.42 311.08,176.30 316.12,172.18 324.43,160.44 332.74,148.69 339.81,134.11 346.88,119.54 351.62,103.28 356.37,87.02 358.54,72.08 360.71,57.14 361.55,45.89 362.40,34.64 362.13,27.64 361.85,20.63 361.77,18.12 361.70,15.62 361.77,14.93 361.85,14.24 362.09,13.59 362.33,12.93 362.72,12.36 363.11,11.78 363.63,11.31 364.15,10.85 364.76,10.52 365.37,10.19 366.05,10.02 366.72,9.85 367.42,9.84 368.11,9.83 368.79,9.99 369.47,10.16 370.09,10.47 370.71,10.79 371.23,11.25 371.75,11.70 372.15,12.27 372.56,12.84 372.81,13.49 373.06,14.14 373.15,14.83 373.24,15.52 373.21,18.44 373.18,21.36 372.90,28.94 372.63,36.52 371.05,50.80 369.48,65.08 368.34,78.10 367.20,91.12 366.36,103.38 365.52,115.63 365.17,126.24 364.82,136.84 365.86,146.54 366.90,156.23 369.33,161.76 371.75,167.29 374.97,169.98 378.19,172.68 381.68,173.65 385.18,174.63 388.56,174.89 391.95,175.16 396.33,172.51 400.72,169.87 405.39,166.11 410.06,162.36 414.27,157.52 418.49,152.68 422.12,145.46 425.76,138.24 428.54,132.33 431.32,126.43 431.54,126.06 431.75,125.69 432.07,125.42 432.40,125.14 432.79,124.98 433.18,124.82 433.61,124.79 434.03,124.76 434.44,124.87 434.85,124.98 435.21,125.22 435.56,125.46 435.82,125.79 436.08,126.13 436.22,126.53 436.36,126.93 436.36,127.36 436.36,127.78 436.23,128.19 436.10,128.59 435.84,128.93 435.59,129.27 435.24,129.51 434.89,129.75 434.48,129.87 434.07,129.99 433.65,129.97 433.22,129.95 432.83,129.79 432.43,129.64 432.11,129.37 431.78,129.09 431.56,128.73 431.34,128.37 431.24,127.95 431.15,127.54 431.19,127.12 431.23,126.69 431.41,126.31 431.58,125.92 431.87,125.61 432.16,125.30 432.54,125.10 432.91,124.89 433.33,124.82 433.75,124.75 434.17,124.82 434.59,124.88 434.96,125.08 435.34,125.27 435.64,125.58 435.93,125.89 436.11,126.27 436.29,126.65 436.34,127.08 436.39,127.50 436.30,127.91 436.22,128.33 436.22,128.33 436.22,128.33 434.27,134.56 432.33,140.80 429.58,150.00 426.83,159.21 422.16,165.39 417.50,171.57 411.85,176.07 406.19,180.57 399.03,183.77 391.88,186.96 386.59,186.47 381.30,185.98 375.83,183.81 370.36,181.65 365.68,176.96 360.99,172.26 358.03,164.94 355.07,157.61 353.99,147.03 352.91,136.45 353.30,125.63 353.68,114.80 354.57,102.44 355.46,90.09 356.63,76.91 357.81,63.74 359.46,49.91 361.12,36.07 361.41,28.69 361.71,21.31 361.70,18.47 361.70,15.62 361.77,14.93 361.85,14.24 362.09,13.59 362.33,12.93 362.72,12.36 363.11,11.78 363.63,11.32 364.15,10.85 364.76,10.52 365.37,10.19 366.05,10.02 366.72,9.85 367.42,9.84 368.11,9.83 368.79,9.99 369.47,10.16 370.09,10.47 370.70,10.79 371.23,11.25 371.75,11.70 372.15,12.27 372.55,12.84 372.81,13.49 373.06,14.14 373.15,14.83 373.24,15.52 373.22,18.02 373.20,20.53 373.05,28.02 372.90,35.52 371.84,47.07 370.79,58.62 368.47,74.23 366.16,89.84 361.25,106.94 356.35,124.04 349.05,139.51 341.75,154.98 332.54,168.17 323.33,181.36 316.19,186.53 309.05,191.71 302.09,192.77 295.14,193.83 289.95,190.57 284.76,187.31 283.01,180.84 281.26,174.36 282.96,167.67 284.65,160.97 288.49,152.79 292.33,144.60 298.57,135.64 304.81,126.69 313.48,116.95 322.16,107.21 328.97,100.99 335.77,94.77 341.30,90.35 346.83,85.93 350.14,84.97 353.45,84.02 357.46,86.94 361.48,89.86 361.72,93.23 361.96,96.61 361.02,100.57 360.08,104.54 358.05,110.11 356.03,115.69 351.66,122.90 347.29,130.12 339.02,139.04 330.75,147.96 321.12,154.13 311.49,160.30 300.42,164.83 289.36,169.36 278.07,171.01 266.79,172.66 256.92,170.72 247.06,168.77 239.31,163.81 231.57,158.85 229.03,153.14 226.49,147.44 225.52,141.04 224.54,134.64 224.12,127.59 223.69,120.53 223.06,113.87 222.42,107.22 222.39,109.72 222.35,112.23 216.67,117.25 210.98,122.26 203.90,129.30 196.83,136.34 189.08,144.87 181.34,153.39 174.84,161.27 168.34,169.14 164.54,174.12 160.74,179.10 160.41,179.73 160.07,180.36 159.60,180.88 159.12,181.41 158.53,181.81 157.94,182.21 157.28,182.46 156.61,182.70 155.91,182.78 155.20,182.86 154.50,182.77 153.79,182.68 153.13,182.42 152.47,182.16 151.89,181.75 151.30,181.34 150.84,180.81 150.37,180.27 150.05,179.64 149.72,179.01 149.56,178.32 149.39,177.63 149.40,176.92 149.41,176.20 149.58,175.52 149.76,174.83 150.77,172.37 151.79,169.91 153.64,165.24 155.48,160.58 157.51,153.75 159.54,146.93 161.58,138.27 163.62,129.62 164.83,123.39 166.04,117.16 166.68,113.29 167.31,109.42 167.80,104.84 168.29,100.27 168.83,99.86 169.36,99.45 169.98,99.18 170.59,98.91 171.25,98.80 171.92,98.69 172.59,98.74 173.26,98.78 173.89,98.99 174.53,99.20 175.10,99.55 175.68,99.91 176.15,100.39 176.61,100.87 176.96,101.45 177.30,102.03 177.49,102.67 177.68,103.31 177.71,103.99 177.75,104.66 177.62,105.32 177.49,105.98 177.21,106.58 176.92,107.19 176.50,107.72 176.08,108.24 175.28,108.65 174.48,109.06 172.73,110.76 170.98,112.45 167.23,116.08 163.49,119.71 157.19,125.47 150.90,131.23 141.95,138.87 133.01,146.51 120.60,155.35 108.18,164.19 97.75,169.09 87.32,173.99 76.55,177.11 65.78,180.23 53.94,180.94 42.11,181.64 28.64,179.08 15.17,176.52 7.87,171.18 0.57,165.84 -2.72,158.60 -6.02,151.36 -5.09,144.13 -4.15,136.90 -0.79,130.15 2.57,123.41 9.00,116.75 15.44,110.10 22.11,105.89 28.78,101.69 35.85,99.03 42.91,96.36 49.64,95.63 56.37,94.90 62.80,96.24 69.23,97.58 71.19,100.50 73.14,103.43 72.49,107.40 71.85,111.37 69.90,114.20 67.95,117.02 64.13,120.75 60.30,124.49 53.16,130.26 46.02,136.02 38.26,141.49 30.50,146.95 21.75,152.51 13.00,158.08 2.65,163.46 -7.70,168.84 -20.87,174.83 -34.04,180.81 -45.64,185.53 -57.24,190.25 -69.27,195.18 -81.30,200.11 -92.41,205.22 -103.53,210.32 -112.56,214.74 -121.59,219.17 -127.72,221.83 -133.86,224.49 -134.46,224.65 -135.07,224.80 -135.70,224.81 -136.33,224.81 -136.94,224.67 -137.55,224.52 -138.11,224.24 -138.67,223.95 -139.14,223.54 -139.61,223.13 -139.98,222.61 -140.34,222.10 -140.57,221.52 -140.79,220.93 -140.88,220.31 -140.96,219.69 -140.89,219.06 -140.82,218.44 -140.60,217.85 -140.38,217.26 -140.03,216.74 -139.68,216.22 -139.21,215.80 -138.75,215.38 -138.19,215.08 -137.64,214.79 -137.14,214.22 -136.64,213.65 -133.38,212.37 -130.12,211.10 -123.72,208.11 -117.32,205.12 -107.11,199.38 -96.90,193.63 -86.51,186.41 -76.13,179.18 -65.29,171.21 -54.46,163.24 -45.05,155.62 -35.63,147.99 -28.87,141.57 -22.10,135.15 -21.09,132.45 -20.08,129.76 -21.65,128.11 -23.22,126.47 -29.05,124.52 -34.88,122.56 -47.06,121.63 -59.24,120.71 -78.25,120.10 -97.26,119.49 -110.78,117.92 -124.29,116.35 -132.70,112.12 -141.11,107.89 -142.76,99.53 -144.40,91.17 -139.59,80.31 -134.77,69.44 -126.79,59.37 -118.82,49.29 -108.43,38.86 -98.05,28.43 -86.48,19.32 -74.91,10.20 -62.86,3.92 -50.81,-2.35 -38.35,-4.80 -25.90,-7.26 -20.67,-6.43 -15.45,-5.60 -14.86,-5.39 -14.26,-5.17 -13.74,-4.82 -13.22,-4.48 -12.79,-4.01 -12.37,-3.55 -12.06,-2.99 -11.76,-2.44 -11.60,-1.83 -11.44,-1.23 -11.43,-0.60 -11.42,0.02 -11.56,0.64 -11.70,1.25 -11.99,1.81 -12.27,2.38 -12.68,2.85 -13.09,3.33 -13.60,3.70 -14.11,4.06 -14.70,4.30 -15.28,4.53 -15.90,4.62 -16.53,4.70 -17.15,4.64 -17.78,4.57 -17.78,4.57 L -17.78,4.57 Z"></path></g></svg>
