<?xml version="1.0" standalone="no"?>
<!DOCTYPE svg PUBLIC "-//W3C//DTD SVG 1.1//EN" "http://www.w3.org/Graphics/SVG/1.1/DTD/svg11.dtd">
<svg version="1.1" xmlns="http://www.w3.org/2000/svg" viewBox="0 0 917.2255305150659 934.6132934383986" width="917.2255305150659" height="934.6132934383986"><!-- svg-source:excalidraw --><metadata></metadata><defs><style class="style-fonts">
      </style></defs><g transform="translate(37.67155658605134 464.7430908610222) rotate(357.72846494060934 271.228515625 1.072265625)" stroke="none"><path fill="#4f3866" d="M -2.84,-3.68 Q -2.84,-3.68 1.63,-7.28 6.12,-10.87 10.22,-14.18 14.33,-17.49 19.18,-21.49 24.04,-25.48 27.66,-28.48 31.29,-31.47 34.05,-33.69 36.81,-35.91 38.74,-37.39 40.68,-38.87 44.35,-40.37 48.02,-41.87 50.03,-42.58 52.03,-43.29 54.37,-43.59 56.70,-43.89 59.17,-42.76 61.63,-41.64 62.73,-38.17 63.83,-34.71 63.78,-30.22 63.73,-25.73 62.40,-16.96 61.07,-8.19 59.66,-0.26 58.25,7.65 57.12,14.13 55.98,20.61 55.14,25.56 54.30,30.52 53.83,33.95 53.37,37.39 53.11,39.73 52.86,42.07 52.74,43.47 52.63,44.87 52.46,45.59 52.30,46.30 51.97,46.96 51.63,47.61 51.15,48.17 50.67,48.72 50.07,49.15 49.48,49.57 48.79,49.84 48.11,50.11 47.38,50.21 46.66,50.31 45.93,50.23 45.20,50.15 44.51,49.90 43.82,49.64 43.21,49.24 42.60,48.83 42.11,48.28 41.61,47.74 41.26,47.09 40.91,46.45 40.73,45.74 40.54,45.03 40.53,44.29 40.53,43.56 43.37,40.82 46.22,38.07 47.85,36.11 49.47,34.14 52.70,30.62 55.93,27.09 60.21,22.18 64.49,17.27 69.16,11.02 73.83,4.78 79.79,-3.81 85.75,-12.41 90.55,-18.26 95.35,-24.11 98.47,-27.42 101.59,-30.73 103.27,-32.25 104.94,-33.76 108.27,-34.52 111.59,-35.27 114.64,-33.08 117.68,-30.89 118.35,-28.38 119.02,-25.87 119.24,-22.40 119.46,-18.92 119.60,-11.61 119.75,-4.29 119.81,3.28 119.88,10.86 119.90,18.09 119.92,25.32 119.92,31.59 119.93,37.86 120.36,41.98 120.79,46.10 121.75,43.60 122.71,41.10 126.18,36.12 129.65,31.14 135.39,21.56 141.13,11.99 146.62,3.45 152.12,-5.07 157.21,-11.60 162.30,-18.13 166.27,-22.22 170.24,-26.31 173.58,-28.50 176.91,-30.69 180.55,-29.61 184.19,-28.53 185.66,-25.44 187.14,-22.36 187.44,-18.74 187.74,-15.13 187.82,-10.77 187.90,-6.42 186.89,0.95 185.89,8.33 184.88,14.41 183.87,20.49 183.41,25.17 182.94,29.84 182.73,33.68 182.53,37.51 182.74,40.89 182.95,44.27 183.75,46.91 184.54,49.56 188.68,47.73 192.82,45.91 197.92,42.73 203.02,39.55 210.61,34.56 218.19,29.56 228.66,21.90 239.13,14.23 246.92,7.70 254.71,1.17 260.15,-4.07 265.59,-9.32 268.85,-12.89 272.11,-16.46 273.67,-18.28 275.24,-20.10 275.84,-20.67 276.44,-21.23 276.97,-21.71 277.49,-22.19 278.11,-22.53 278.74,-22.87 279.43,-23.05 280.11,-23.23 280.82,-23.24 281.53,-23.25 282.22,-23.09 282.92,-22.93 283.55,-22.61 284.18,-22.29 284.72,-21.83 285.26,-21.37 285.67,-20.79 286.09,-20.21 286.35,-19.55 286.61,-18.89 286.71,-18.19 286.80,-17.48 286.73,-16.78 286.65,-16.07 286.41,-15.40 286.17,-14.74 285.77,-14.15 285.38,-13.55 281.71,-11.14 278.04,-8.72 274.72,-6.79 271.39,-4.85 267.45,-2.20 263.50,0.44 259.20,4.22 254.91,7.99 249.92,13.39 244.94,18.79 239.02,26.95 233.11,35.12 230.05,41.39 226.99,47.67 225.77,51.90 224.54,56.13 227.77,54.14 230.99,52.15 235.76,47.80 240.53,43.46 245.59,37.65 250.66,31.83 255.10,25.93 259.53,20.02 262.72,14.27 265.91,8.51 267.67,4.74 269.42,0.97 270.53,-1.48 271.64,-3.95 272.20,-4.45 272.76,-4.96 273.12,-5.55 273.48,-6.15 273.97,-6.64 274.47,-7.14 275.07,-7.50 275.66,-7.86 276.33,-8.07 277.00,-8.28 277.69,-8.32 278.39,-8.36 279.08,-8.23 279.76,-8.11 280.40,-7.82 281.04,-7.54 281.59,-7.10 282.14,-6.67 282.57,-6.12 283.00,-5.57 283.28,-4.94 283.57,-4.30 283.70,-3.61 283.82,-2.93 283.78,-2.23 283.74,-1.53 283.53,-0.87 283.32,-0.20 282.81,6.37 282.29,12.95 281.82,17.94 281.35,22.92 281.42,27.02 281.50,31.11 282.99,33.79 284.48,36.46 286.81,37.84 289.15,39.23 296.87,32.97 304.59,26.71 311.75,19.21 318.92,11.71 326.34,1.54 333.76,-8.63 340.93,-21.16 348.10,-33.69 354.46,-45.07 360.82,-56.45 364.86,-63.31 368.91,-70.17 370.16,-72.65 371.41,-75.13 371.82,-75.67 372.22,-76.20 372.75,-76.62 373.27,-77.05 373.88,-77.33 374.49,-77.61 375.15,-77.74 375.81,-77.87 376.49,-77.84 377.16,-77.81 377.81,-77.62 378.45,-77.43 379.03,-77.09 379.61,-76.75 380.09,-76.28 380.58,-75.81 380.93,-75.23 381.29,-74.66 381.50,-74.02 381.71,-73.38 381.76,-72.71 381.80,-72.04 381.69,-71.38 381.58,-70.71 381.31,-70.09 381.04,-69.48 380.01,-64.44 378.97,-59.41 376.30,-48.40 373.62,-37.39 370.63,-26.95 367.63,-16.52 363.79,-6.11 359.95,4.29 355.54,14.24 351.12,24.18 346.80,33.38 342.47,42.57 338.25,51.72 334.03,60.87 331.82,65.74 329.61,70.62 328.63,72.30 327.65,73.99 327.26,74.63 326.86,75.28 326.33,75.81 325.79,76.34 325.15,76.73 324.50,77.12 323.78,77.34 323.06,77.56 322.31,77.61 321.56,77.65 320.81,77.51 320.07,77.38 319.39,77.07 318.70,76.75 318.11,76.29 317.51,75.82 317.05,75.23 316.59,74.63 316.28,73.94 315.97,73.26 315.84,72.51 315.70,71.77 315.75,71.02 315.80,70.27 316.02,69.55 316.25,68.83 318.52,65.59 320.80,62.35 328.72,52.54 336.64,42.72 344.88,32.88 353.11,23.05 360.77,14.35 368.43,5.66 374.64,-0.71 380.85,-7.08 385.13,-10.96 389.41,-14.84 392.28,-17.06 395.14,-19.29 397.71,-20.39 400.27,-21.48 403.76,-20.68 407.24,-19.89 409.30,-17.04 411.35,-14.20 412.08,-9.12 412.82,-4.04 411.90,0.94 410.99,5.92 408.60,10.89 406.22,15.86 402.28,20.99 398.34,26.13 393.40,31.05 388.46,35.97 382.81,40.44 377.17,44.90 373.53,47.09 369.90,49.28 367.90,50.25 365.89,51.22 362.56,50.81 359.22,50.39 357.12,48.55 355.02,46.71 353.84,44.10 352.66,41.50 352.39,39.68 352.11,37.87 352.09,37.11 352.07,36.34 352.23,35.60 352.39,34.85 352.72,34.16 353.06,33.48 353.55,32.89 354.04,32.30 354.65,31.85 355.27,31.40 355.97,31.10 356.68,30.81 357.43,30.70 358.19,30.58 358.95,30.65 359.71,30.72 360.43,30.97 361.16,31.22 361.80,31.63 362.44,32.05 362.96,32.60 363.49,33.16 363.86,33.82 364.24,34.49 364.44,35.23 364.65,35.96 366.22,37.76 367.80,39.55 370.49,42.46 373.18,45.37 376.93,48.37 380.67,51.37 385.32,54.10 389.98,56.82 393.62,58.66 397.26,60.49 404.38,62.05 411.50,63.60 417.47,63.34 423.44,63.07 429.70,60.87 435.95,58.67 444.10,54.27 452.24,49.86 457.96,45.54 463.68,41.22 467.61,36.44 471.55,31.65 474.43,26.06 477.31,20.47 479.13,14.93 480.96,9.39 481.42,4.91 481.89,0.43 479.71,-0.79 477.52,-2.02 475.40,-2.26 473.28,-2.50 469.62,-1.37 465.96,-0.24 462.89,1.08 459.82,2.41 453.93,7.37 448.04,12.34 443.16,17.72 438.27,23.10 435.20,27.80 432.13,32.50 431.16,37.40 430.18,42.30 431.52,46.38 432.85,50.45 436.30,54.54 439.74,58.63 445.39,62.12 451.04,65.61 461.91,67.64 472.79,69.67 483.19,69.25 493.60,68.84 502.25,65.47 510.89,62.11 517.79,57.09 524.70,52.08 529.04,48.29 533.38,44.49 536.97,41.70 540.55,38.90 540.89,38.65 541.23,38.39 541.63,38.26 542.03,38.12 542.46,38.12 542.88,38.12 543.28,38.26 543.69,38.40 544.02,38.65 544.36,38.91 544.60,39.26 544.84,39.62 544.95,40.03 545.06,40.43 545.04,40.86 545.02,41.28 544.86,41.68 544.70,42.07 544.42,42.40 544.15,42.72 543.78,42.94 543.42,43.16 543.00,43.25 542.59,43.34 542.17,43.29 541.74,43.24 541.36,43.06 540.97,42.88 540.67,42.59 540.36,42.30 540.16,41.92 539.96,41.55 539.89,41.13 539.83,40.71 539.90,40.29 539.96,39.87 540.16,39.49 540.36,39.12 540.67,38.83 540.98,38.54 541.37,38.36 541.75,38.18 542.18,38.14 542.60,38.09 543.01,38.18 543.43,38.28 543.79,38.50 544.16,38.72 544.43,39.04 544.71,39.36 544.86,39.76 545.02,40.15 545.04,40.58 545.06,41.00 544.95,41.41 544.83,41.82 544.59,42.17 544.35,42.52 544.36,42.52 544.36,42.52 541.75,46.24 539.13,49.96 535.10,54.98 531.06,60.00 523.31,66.73 515.56,73.46 504.95,77.73 494.34,81.99 482.24,82.41 470.14,82.84 457.07,79.89 444.00,76.93 436.68,71.89 429.36,66.85 424.80,60.44 420.25,54.03 418.83,47.02 417.41,40.01 419.24,32.75 421.07,25.49 424.88,19.84 428.70,14.19 434.38,8.28 440.06,2.37 447.48,-3.29 454.91,-8.96 458.94,-10.61 462.98,-12.27 468.99,-13.51 475.00,-14.75 479.03,-13.91 483.06,-13.08 486.59,-10.59 490.12,-8.11 491.82,-3.60 493.51,0.89 492.84,6.87 492.17,12.86 490.18,19.47 488.20,26.09 484.66,32.87 481.13,39.65 476.16,45.40 471.19,51.15 464.69,55.97 458.20,60.80 449.13,65.73 440.07,70.67 432.04,73.33 424.01,75.99 416.34,76.15 408.68,76.31 400.06,74.23 391.45,72.15 387.36,70.06 383.27,67.96 377.88,64.65 372.50,61.33 368.13,57.65 363.75,53.97 360.58,50.43 357.40,46.89 354.76,42.38 352.11,37.87 352.09,37.11 352.07,36.35 352.23,35.60 352.39,34.85 352.72,34.16 353.06,33.48 353.55,32.89 354.04,32.30 354.65,31.85 355.27,31.40 355.97,31.10 356.68,30.81 357.43,30.70 358.19,30.58 358.95,30.65 359.71,30.72 360.43,30.97 361.16,31.22 361.80,31.63 362.44,32.05 362.96,32.60 363.49,33.16 363.86,33.82 364.24,34.49 364.44,35.23 364.65,35.96 364.06,37.16 363.47,38.36 366.48,36.63 369.49,34.91 374.69,31.03 379.90,27.15 384.43,22.87 388.96,18.59 392.38,14.54 395.81,10.49 397.79,6.91 399.77,3.33 400.69,0.07 401.60,-3.18 401.53,-6.68 401.46,-10.18 398.83,-8.58 396.21,-6.97 392.06,-3.56 387.92,-0.16 381.91,5.94 375.91,12.05 368.63,20.85 361.35,29.65 353.58,39.80 345.80,49.96 338.32,59.64 330.84,69.32 329.24,71.66 327.65,73.99 327.26,74.63 326.86,75.28 326.33,75.81 325.80,76.34 325.15,76.73 324.50,77.12 323.78,77.34 323.06,77.56 322.31,77.61 321.56,77.65 320.81,77.51 320.07,77.38 319.39,77.07 318.70,76.76 318.11,76.29 317.51,75.82 317.05,75.23 316.59,74.63 316.28,73.94 315.97,73.26 315.84,72.51 315.70,71.77 315.75,71.02 315.80,70.27 316.02,69.55 316.25,68.83 317.15,67.10 318.05,65.38 320.27,60.47 322.49,55.57 326.72,46.35 330.94,37.14 335.23,28.07 339.52,18.99 343.82,9.44 348.13,-0.10 351.86,-10.05 355.59,-20.00 358.56,-30.22 361.53,-40.44 364.46,-51.64 367.39,-62.84 368.33,-65.90 369.28,-68.96 370.34,-72.05 371.41,-75.13 371.82,-75.66 372.22,-76.20 372.75,-76.62 373.27,-77.04 373.88,-77.33 374.49,-77.61 375.15,-77.74 375.81,-77.87 376.49,-77.84 377.16,-77.81 377.80,-77.62 378.45,-77.43 379.03,-77.09 379.61,-76.75 380.09,-76.28 380.58,-75.81 380.93,-75.24 381.29,-74.66 381.50,-74.02 381.71,-73.38 381.76,-72.71 381.80,-72.04 381.69,-71.38 381.58,-70.71 381.31,-70.10 381.04,-69.48 379.04,-67.44 377.03,-65.39 373.13,-58.71 369.23,-52.02 363.37,-40.23 357.52,-28.44 350.31,-15.15 343.11,-1.86 335.28,8.97 327.46,19.81 319.87,27.84 312.28,35.88 304.41,42.27 296.55,48.66 291.55,49.71 286.56,50.75 282.72,49.19 278.89,47.63 276.22,44.69 273.55,41.75 271.50,36.74 269.46,31.73 269.37,26.73 269.29,21.73 269.86,16.33 270.42,10.93 271.24,6.71 272.06,2.48 272.41,-1.23 272.76,-4.95 273.12,-5.55 273.48,-6.15 273.97,-6.64 274.47,-7.14 275.06,-7.50 275.66,-7.86 276.33,-8.07 277.00,-8.28 277.69,-8.32 278.39,-8.36 279.08,-8.23 279.76,-8.11 280.40,-7.82 281.04,-7.54 281.59,-7.11 282.14,-6.67 282.57,-6.12 283.00,-5.58 283.28,-4.94 283.57,-4.30 283.70,-3.62 283.82,-2.93 283.78,-2.23 283.74,-1.53 283.53,-0.87 283.32,-0.20 282.68,0.43 282.04,1.07 280.90,3.62 279.75,6.17 277.61,10.14 275.47,14.10 271.74,20.18 268.01,26.25 263.49,32.52 258.97,38.78 253.67,45.37 248.37,51.96 242.54,57.37 236.71,62.78 230.63,65.30 224.54,67.82 220.14,66.01 215.75,64.20 214.18,58.62 212.62,53.03 214.24,47.60 215.86,42.17 219.49,35.00 223.12,27.83 229.57,19.14 236.02,10.46 241.55,4.63 247.07,-1.19 252.01,-5.28 256.95,-9.38 261.22,-12.19 265.49,-15.00 268.82,-16.93 272.15,-18.86 274.29,-20.05 276.44,-21.23 276.97,-21.71 277.49,-22.19 278.11,-22.53 278.74,-22.87 279.43,-23.05 280.11,-23.23 280.82,-23.24 281.53,-23.25 282.22,-23.09 282.92,-22.93 283.55,-22.61 284.18,-22.29 284.72,-21.83 285.26,-21.37 285.67,-20.79 286.09,-20.21 286.35,-19.55 286.61,-18.89 286.71,-18.19 286.80,-17.48 286.73,-16.78 286.65,-16.07 286.41,-15.40 286.17,-14.74 285.77,-14.15 285.38,-13.56 284.73,-13.02 284.08,-12.48 282.40,-10.53 280.73,-8.59 277.22,-4.75 273.71,-0.92 268.01,4.59 262.31,10.10 254.30,17.00 246.30,23.90 235.66,31.88 225.02,39.87 217.30,45.02 209.58,50.17 203.73,53.76 197.88,57.35 193.22,59.18 188.56,61.01 184.65,60.95 180.73,60.89 178.24,59.58 175.75,58.27 174.34,56.42 172.93,54.58 172.11,52.49 171.29,50.41 170.79,47.70 170.29,44.99 170.08,40.91 169.88,36.84 170.11,32.69 170.34,28.54 170.88,23.43 171.43,18.31 172.52,12.37 173.62,6.43 174.75,0.03 175.88,-6.37 175.91,-10.38 175.94,-14.39 177.12,-16.41 178.30,-18.43 174.74,-14.81 171.18,-11.20 166.42,-5.10 161.67,1.00 156.39,9.43 151.11,17.86 145.29,27.90 139.48,37.94 135.48,43.74 131.49,49.54 126.99,53.37 122.48,57.20 118.69,56.87 114.89,56.53 111.66,52.12 108.42,47.70 107.89,42.79 107.36,37.88 107.35,31.60 107.35,25.33 107.36,18.11 107.36,10.89 107.39,3.33 107.41,-4.22 107.47,-11.36 107.52,-18.51 108.66,-20.73 109.80,-22.95 106.95,-19.96 104.09,-16.97 99.63,-11.46 95.16,-5.96 89.17,2.86 83.19,11.69 78.34,18.34 73.49,24.98 69.17,30.11 64.85,35.23 61.36,39.07 57.86,42.91 54.10,46.10 50.33,49.29 51.48,47.08 52.63,44.87 52.46,45.59 52.30,46.30 51.97,46.96 51.63,47.61 51.15,48.17 50.67,48.72 50.08,49.15 49.48,49.57 48.79,49.84 48.11,50.11 47.38,50.21 46.66,50.31 45.93,50.23 45.20,50.15 44.51,49.90 43.82,49.64 43.21,49.24 42.60,48.83 42.11,48.28 41.61,47.74 41.26,47.09 40.91,46.45 40.73,45.74 40.54,45.03 40.53,44.30 40.53,43.56 40.64,42.16 40.75,40.76 41.02,38.25 41.28,35.75 41.78,32.11 42.28,28.48 43.12,23.49 43.97,18.49 45.12,11.99 46.27,5.49 47.70,-2.32 49.13,-10.14 50.55,-18.13 51.97,-26.12 53.57,-29.76 55.18,-33.39 50.88,-32.23 46.58,-31.06 44.75,-29.68 42.92,-28.30 40.21,-26.13 37.49,-23.96 33.86,-20.95 30.23,-17.95 25.33,-13.93 20.44,-9.91 16.25,-6.54 12.06,-3.17 7.45,0.25 2.84,3.68 2.36,3.97 1.88,4.26 1.34,4.42 0.80,4.58 0.24,4.61 -0.31,4.64 -0.86,4.54 -1.41,4.43 -1.92,4.20 -2.43,3.97 -2.87,3.62 -3.31,3.27 -3.66,2.82 -4.00,2.38 -4.23,1.86 -4.45,1.35 -4.55,0.80 -4.65,0.24 -4.61,-0.31 -4.57,-0.87 -4.40,-1.40 -4.23,-1.94 -3.94,-2.42 -3.64,-2.90 -3.24,-3.29 -2.84,-3.68 -2.84,-3.68 L -2.84,-3.68 Z"></path></g></svg>
